
<?xml version="1.0" standalone="no"?>
<!DOCTYPE svg PUBLIC "-//W3C//DTD SVG 1.1//EN" "http://www.w3.org/Graphics/SVG/1.1/DTD/svg11.dtd" >
<svg>
<metadata>
Created by FontForge 20110222 at Mon Mar 26 15:55:59 2012
 By Stefan Warting
Copyright (c) 2011 by Buro Destruct. All rights reserved.
</metadata>
<defs>
<font id="Edding" horiz-adv-x="711" >
  <font-face 
    font-family="Edding850"
    font-weight="400"
    font-stretch="normal"
    units-per-em="1000"
    panose-1="3 0 8 0 0 8 2 0 5 0"
    ascent="800"
    descent="-200"
    x-height="707"
    cap-height="706"
    bbox="-2 -215 1616 880"
    underline-thickness="50"
    underline-position="-50"
    unicode-range="U+0020-FB06"
  />
<missing-glyph horiz-adv-x="500" 
 />
    <glyph glyph-name="ST" unicode="ST" horiz-adv-x="1245" 
d="M1231 695l2 -11l-3 -59l2 -31l-1 -80l-1 -108l-7 -1l-11 -5l-149 3l-1 -52l2 -309l-6 -48l-83 -2l-90 2h-93s-26 1 -27 1l-41 2v44l-2 95s2 68 3 115v154l-89 -1l-81 1l-60 -2l-27 -1l-127 2v-16h22l208 -4l104 -2h17h12l-2 -35v-15l-1 -9l3 -32l-3 -117l2 -153l-7 -28
l-22 -1l-40 -3l-138 3l-65 1h-27l-40 3l-42 1l-234 -5l-85 8l3 197l-2 97l143 -4h81l138 -3l-1 19h-121l-108 1l-67 4h-26l-41 3v10v15l-2 52s1 32 2 54l1 96l2 37l1 43v6l4 73l48 5h15v1l76 -1h4h79l202 -2c47 0 114 1 115 1l13 -1l73 2l87 1l219 -2c51 0 125 -1 125 -1
l89 2l74 -1z" />
    <glyph glyph-name="st" unicode="st" horiz-adv-x="1245" 
d="M1080 709l83 -2l70 -1v-11l-1 -11l-9 -52l-5 -31l-15 -80l-18 -105l-6 -3l-11 -3l-107 2l-1 -53l3 -316l-7 -48l-83 -2l-89 1l-93 1c-1 0 -28 1 -28 1l-40 6v40l-2 103s1 68 2 114l1 155h-65l-5 -1l-314 3l1 -17h22l208 -3l104 -3h28l-1 -35l-1 -15v-10l2 -33l-3 -117
l3 -160l-8 -28l-21 -1l-40 -4l-313 5h-233l-88 5l47 215l21 88l79 -4h80l139 -3l-2 21h-218h-11v1l-66 4h-27l-40 3v11l-1 16l-1 48s1 32 2 53l1 96l1 37l-3 44l53 4l18 80l79 -4l80 1l202 -2h115l56 1h79l80 1l202 -2h115z" />
    <glyph glyph-name="ft" unicode="ft" horiz-adv-x="1162" 
d="M986 708l92 -3l72 -1v-11l-1 -11l-14 -54l-5 -31l-17 -79l-23 -106l-6 -2l-10 -4l-107 3l-1 -53l3 -313l-7 -46l-83 -3l-89 2l-94 1l-27 -1l-40 6v40l-2 100s1 68 2 114v146l-288 6l-1 -17l49 -1c40 1 98 1 98 1l84 -3l35 -1l4 -35l1 -24l-1 -81v-78l-3 -73l-42 -5
l-224 6l1 -56l-7 -45l-83 -2l-89 2l-93 -3s-8 0 -16 1v-2l-52 8v40l-2 100s1 67 2 114l1 202l2 80l-3 79l56 11l19 81l78 -3h80l202 3h73l79 -2l80 1l202 1c47 1 115 1 115 1z" />
    <glyph glyph-name="ff" unicode="ff" horiz-adv-x="1336" 
d="M1323 668l1 -24l-1 -86v-78l-4 -73l-48 -5l-304 6v-17l49 -1c40 1 97 1 98 1l83 -3l35 -1l5 -35v-24v-81v-78l-4 -73l-41 -5l-224 6v-56l-6 -45l-83 -2l-89 3l-94 -1l-15 1l-53 3v40l-1 100s1 67 2 114v148l-90 1l-198 5l-1 -17l49 -1c40 1 98 1 98 1l84 -3l35 -1l4 -36
c0 -1 1 -23 1 -23l-1 -81v-78l-3 -73l-41 -5l-225 6l1 -53l-7 -48l-83 -2l-89 2l-93 -3s-8 0 -15 1v-2l-53 8v40l-2 100s1 67 2 114l1 202l2 80l-3 79l56 11l19 81l78 -3l80 5l202 -2c47 0 115 1 115 1l99 -3l24 -1l6 -38v-22v-14h3l19 82l79 -4l80 1l202 -2
c47 0 114 1 115 1l99 -3l40 -1z" />
    <glyph glyph-name="th" unicode="th" horiz-adv-x="1320" 
d="M1308 112c0 -1 -2 -68 -2 -68v-41l-43 -6h-24l-92 -1l-88 -2l-83 3l-3 48v157l-2 203l2 48l-19 6l-2 -106v-310l-3 -48l-84 -3l-89 2l-93 1s-18 1 -24 1l-6 -3l-38 10v39l-2 96s1 68 2 115l1 152l-94 1l-1 -52l2 -308l-6 -48l-83 -3l-90 2l-93 -2l-27 -1l-41 6v40l-2 100
s2 67 3 114v155l-97 -1l-87 8l45 206l20 88l79 -4l80 1h202h115l92 -3h72v-1l246 3l7 -78l-2 -87l123 -43l110 -40l98 -36l12 -5l7 -1v-11l-2 -51l1 -80l1 -111c1 -35 2 -47 2 -51z" />
    <glyph glyph-name="TH" unicode="TH" horiz-adv-x="1251" 
d="M1234 707l5 -83l-6 -260l3 -321l-7 -48l-83 -3l-89 2l-93 1l-28 1l-40 6v40l-2 107s0 23 1 51h-10h-6l1 -156l-7 -48l-83 -3l-89 2l-93 1l-27 1l-41 6v40l-2 107s1 68 2 115l1 140l-21 1l-1 -53l2 -310l-6 -48l-83 -3l-89 2l-94 1l-26 1l-41 3l-1 40l-1 99s1 68 2 115
v154l-89 -1l-93 8l2 204l2 91l88 -3l87 3l220 -2c50 1 124 1 124 1l101 -3h75l177 3l7 -83l-3 -130l17 -1l2 79l-3 132l112 -1z" />
    <glyph glyph-name="ty" unicode="ty" horiz-adv-x="1244" 
d="M1232 557c0 0 -1 -68 -2 -115v-139v-12v-4v-68l-2 -73v-25l-1 -4v-68l1 -21l-39 -13l-24 -5l-20 -6l-340 -88l-178 -37l-32 -8l1 48l2 50l4 88l-2 27l2 38v25l2 31l36 11l47 12l45 8l-78 29l-98 35l-11 5l-8 1l-1 2l1 8l3 52l-2 65h-16l-2 -52l3 -310l-6 -48l-83 -2
l-90 1l-93 1l-27 1l-41 3v40l-2 100s2 67 3 114v155l-97 -1l-87 8l45 206l20 88l79 -4l80 1l202 -2c47 0 114 1 115 1h92l55 1l10 -1l90 1l82 -2l7 -48l-3 -164l5 -203l-4 -49l2 -1l14 3l2 99l-2 316l6 48l83 3l89 -2l94 -1l25 -1l7 1l35 -7l1 -40z" />
    <glyph glyph-name="Th" unicode="Th" horiz-adv-x="1320" 
d="M1308 113l-1 -68l-1 -40l-42 -7l-2 2l-23 -2l-92 -1l-88 -2l-83 3l-3 48v157l-2 203l2 48l-19 6l-2 -106l1 -310l-4 -48l-84 -2l-89 2l-93 -3s-18 1 -24 1l-6 -3l-38 10v39l-2 100s1 67 2 114l1 151l-96 2l-1 -53l2 -311l-6 -48l-83 -3l-89 2l-94 -1l-27 1l-40 6l-1 40
l-1 100s1 67 2 114v154l-89 -1l-93 8l2 204l2 91l88 -3l87 1l220 -1c50 0 124 1 124 1l101 -3l75 -1l252 3l7 -76l-2 -89l123 -43l110 -40l98 -36l12 -5l8 -1v-2l-1 -9l-2 -51l2 -80v-110z" />
    <glyph glyph-name="tz" unicode="t&#x7a;" horiz-adv-x="1237" 
d="M1225 665v-21l-1 -81v-78l-3 -73l-3 -1h-2l-102 -36l-143 -49l-98 -33l92 -1c47 1 115 1 115 1l99 -3l40 -1l6 -39l-1 -5l1 -16l-1 -81v-77l-3 -73l-49 -5l-312 5l-234 -3l-86 8l37 206l20 90l2 2l9 4l13 6l101 35l112 35l84 29l-58 1l-225 -2l-7 -2l-106 2l-2 -53
l3 -313l-6 -48l-83 -2l-90 2h-93l-27 1l-41 6v40l-2 100s2 68 3 114v155l-97 -1l-87 8l45 206l20 88l78 -3h81l202 -2c47 1 114 1 115 1l49 -2l14 3h79h80l202 -2l115 1l99 -3h40z" />
    <glyph glyph-name="TZ" unicode="TZ" horiz-adv-x="1232" 
d="M1219 663l1 -16l-1 -81v-78l-4 -73l-2 -1l-1 -1l-104 -35l-142 -48l-91 -34l85 -1c47 1 115 1 115 1l99 -3l40 -1l6 -39v-21l-1 -81v-78l-4 -73l-48 -6l-312 7l-233 -3h-83l5 206l8 79l64 21l100 37l113 43l88 30l-62 2l-150 -6l-20 1l-3 -1h-162l-1 -56l2 -310l-6 -48
l-83 -2l-89 2l-94 -3l-27 1l-40 6l-1 40l-1 100s1 67 2 114v154l-89 -1l-93 8l2 204l2 91l87 -3l88 2l136 -2l363 5h80l202 -2c47 1 115 1 115 1l99 -3l40 -1l6 -39z" />
    <glyph glyph-name="ta" unicode="ta" horiz-adv-x="1254" 
d="M1242 588l-6 -233v-82l4 -26v-21l-1 -81l1 -78l-4 -70l-48 -5h-18h-4l-19 1l-188 4h-7h-78l-233 -5l-93 8l2 182l-1 96l1 9l-2 11l153 51l137 46l31 12h-11l-233 -3l-60 2l-4 -2l-39 1l-1 -51l2 -313l-6 -48l-83 -2l-90 1l-93 1l-27 1l-41 6v40l-2 100s2 67 3 114v155
l-97 -1l-87 8l45 206l20 89l79 -3l80 1l202 -2h114l26 -3h36h79l80 4l202 -2c47 1 115 1 115 1l99 -3h15l10 3l37 -2zM899 335l-124 -43l7 -1l117 -1v45z" />
    <glyph glyph-name="Ta" unicode="Ta" horiz-adv-x="1253" 
d="M1241 588l-6 -233l1 -82l4 -25l-1 -7l1 -15l-1 -74v-79l-4 -73l-48 -5l-17 1l-4 -1l-18 1l-189 4v-1l-7 1l-77 -5l-234 -2l-93 7l2 182l-1 101v4l-1 11l153 51l136 46l32 12h-11l-173 -2l-3 -1l-43 1l-15 -1l-75 2l-29 1l-1 -53l2 -313l-6 -48l-83 -2l-89 1l-94 1l-27 1
l-40 6l-1 40l-1 100s1 67 2 114v154h-89l-93 7l2 204l2 91l88 -3l87 1l220 -3c50 1 124 1 124 1l79 1l79 1h80l202 -2c47 1 115 1 115 1l99 -3h14l11 3l36 -2zM899 335l-124 -43h3l121 -2v45z" />
    <glyph glyph-name="tt" unicode="tt" horiz-adv-x="1135" 
d="M956 706l92 -3l72 -1l-2 -11l1 -11l-14 -54l-5 -31l-17 -80l-23 -105l-6 -2l-11 -4l-106 2l-2 -52l3 -310l-6 -48l-83 -2l-90 2h-93l-27 1l-41 6v40l-2 97s2 67 3 114v152h-77l-1 -52l2 -310l-6 -48l-83 -2l-90 2h-93h-27l-41 4v40l-2 100s2 67 3 114v155l-97 -1l-87 8
l45 206l20 88l79 -4l80 1l202 -2h34l48 1l131 1l202 -2c47 0 114 1 115 1z" />
    <glyph glyph-name="TT" unicode="TT" horiz-adv-x="1131" 
d="M1116 693l2 -11l-3 -54l2 -31l-1 -79l-1 -109l-7 -1l-11 -4l-162 3l-1 -53l2 -310l-6 -48l-83 -2l-90 1l-93 1l-27 1l-41 6v40l-2 97s2 67 3 114v152l-77 1l-1 -53l2 -310l-6 -48l-83 -2l-89 2l-69 2l-25 -2l-26 1h-1l-40 3l-1 40l-1 100s1 67 2 114v154l-89 -1l-93 8
l2 204l2 91l88 -3l87 1l190 -2l18 1h70l137 1l219 -3c51 1 125 1 125 1l101 -3h76z" />
    <glyph glyph-name="ET" unicode="ET" horiz-adv-x="1250" 
d="M1237 694l1 -12l-1 -54l1 -31l-1 -79v-108l-8 -2l-11 -4l-162 3l-1 -53l3 -313l-7 -48l-83 -2l-89 1l-94 1l-27 1l-40 6v40l-2 100s1 67 2 114l1 154h-66l-8 -1l-9 -1l-295 4l-1 -16l205 -4s77 -3 126 -3h17l12 1l-1 -37l-1 -16l-2 -33l-123 2l-137 4h-96v-17l97 -1h115
l99 -3h40l6 -37v-24v-81v-78l-4 -73l-48 -5l-313 6h-17l-63 -2l-41 1l-112 -2l-36 1l-39 6l-13 1l-9 2v41l-2 99s1 68 2 114l1 203l2 79l-3 80l56 10l18 81l79 -3l80 1l202 -3l45 1l58 1l88 1l87 1l220 -3c51 1 124 1 125 1l101 -3h74z" />
    <glyph glyph-name="ETT" unicode="ETT" horiz-adv-x="1616" 
d="M1603 693l1 -11l-3 -54l2 -31l-1 -79l-1 -108l-7 -2l-11 -4l-162 3l-1 -53l3 -310l-7 -48l-83 -2l-89 2h-94l-27 1l-40 6v40l-2 97s1 67 2 114v152l-27 1l-1 -53l3 -310l-7 -48l-83 -2l-89 2h-94l-27 1l-40 6v40l-2 97s1 67 2 114l2 154h-67l-14 -2l-298 4l-1 -16l205 -4
l126 -3h17l12 1l-1 -37l-1 -16l-2 -33l-123 2l-137 4h-96v-17l97 -1h115l99 -3h40l6 -37v-24v-81v-75l-4 -73l-48 -5l-313 6h-16l-64 -2l-41 1l-112 -3l-36 -1l-39 7h-13l-9 2v41l-2 99s1 68 2 114l1 203l2 79l-3 80l56 10l18 81l79 -3l80 1l202 -3l103 2v3l88 -3l87 2
l116 -2l74 1h88l87 1l220 -3c51 1 124 1 125 1l101 -3h76z" />
    <glyph glyph-name="Ty" unicode="Ty" horiz-adv-x="1249" 
d="M1237 551c0 0 -1 -68 -2 -114l-1 -139l1 -13l-1 -4v-68l-1 -73v-25l-1 -72l1 -21l-40 -13l-23 -5l-21 -6l-339 -88l-178 -36l-33 -8l2 47l1 51l4 88l-2 27l3 37v25l2 32l35 10l47 12l45 8l-77 29l-98 36l-12 4l-8 2l1 9l2 52l-1 70l-23 1l-1 -53l2 -313l-6 -48l-83 -3
l-89 2l-93 1l-28 1l-40 6l-1 40l-1 99s1 68 2 115v154l-89 -1l-93 8l2 204l2 91l88 -3l87 3l220 -2c50 1 124 1 124 1l101 -3h64h14l90 -3l83 -3l6 -48l-3 -163l5 -203l-4 -50l3 -1l14 4l2 99l-3 313l7 55l83 1l89 -1l93 -1l26 -1l6 1l36 -7v-43z" />
    <glyph glyph-name="Et" unicode="Et" horiz-adv-x="1260" 
d="M1177 702h71v-23l-14 -54l-5 -34l-17 -82l-23 -106l-6 -2l-11 -4l-106 3l-2 -53l3 -310l-6 -48l-83 -2l-90 1l-93 1h-27l-41 5v41l-2 98s2 68 3 114v155l-97 -1l-6 1l-284 5l-1 -16l205 -3s60 -3 104 -3h17h12l-2 -36v-16l-2 -33l-101 2l-137 4h-96v-18l97 -1
c47 1 115 1 115 1l99 -3l40 -1l6 -39v0v-21v-81v-76l-4 -73l-48 -5l-313 7l-18 -1l-62 -2l-40 1l-113 -1l-38 2h-7v-1l-30 3l-13 1l1 1l-10 1v40l-2 100s1 67 2 114l1 202l2 80l-3 79l56 11l18 81l79 -1l80 4l202 -2c47 1 115 1 115 1l93 -3h71v-3h52l202 1
c47 1 114 1 115 1z" />
    <glyph glyph-name="Ett" unicode="Ett" horiz-adv-x="1628" 
d="M1452 706l93 -3l71 -1l-1 -22l-14 -54l-5 -31l-17 -89l-23 -105l-5 -2l-11 -4l-107 2l-1 -52l3 -304l-7 -48l-83 -3l-89 2l-93 1l-28 -1l-40 6v40l-2 93s1 67 2 114l1 152h-30l-2 -52l3 -304l-6 -48l-83 -3l-90 2l-93 1l-27 -1l-41 6v40l-2 93s2 67 3 114v155l-79 -1
l-9 -2l-299 5l-1 -17l205 -3s60 -3 104 -3h17h12l-2 -36v-16l-2 -33l-101 2l-137 4h-96v-18l97 -1c47 1 115 1 115 1l99 -3h40l6 -40v-21v-81v-70l-4 -73l-48 -5l-313 6h-18l-62 -2l-40 1l-113 -1l-38 3h-7v-1l-30 3l-13 -6l1 1l-10 1v40l-2 100s1 68 2 114l1 203l2 79
l-3 79l56 11l18 81l79 -3l80 4l202 -3c47 1 115 1 115 1l56 -2l1 3l78 -4l81 1l202 6h6v2l33 -2l76 2l57 -2l195 1c47 1 115 1 115 1z" />
    <glyph glyph-name="ett" unicode="ett" horiz-adv-x="1621" 
d="M1538 706l71 -1l-1 -22l-14 -54l-5 -31l-17 -83l-23 -105l-6 -2l-10 -4l-107 2l-1 -52l3 -311l-7 -48l-83 -3l-89 2l-93 1l-28 -1l-40 6v40l-2 100s1 67 2 114l1 152h-30l-2 -52l3 -311l-6 -48l-84 -3l-89 2l-93 1l-27 -1l-41 6v40l-2 100s1 67 3 114v155h-33l-2 -24
l-121 -34l-137 -46l-38 -14l47 -1c47 1 115 1 115 1l99 -3h38v-44l-3 -38v-134v-40l2 -40l-108 -1l-248 5h-15l-65 -2l-42 1l-111 -5l-37 3l-12 1l-28 3l-10 2l-10 1v40l-2 100s1 67 2 114l1 202l2 80l-3 79l56 10l18 82h79h80l200 1c47 1 146 1 146 1l20 -1l1 2l78 -4l81 1
l202 1h6v2l33 -2c38 1 75 1 76 1l57 -2l195 1c47 1 115 1 115 1zM339 356l133 46l-132 -4l-1 -41v-1z" />
    <glyph glyph-name="et" unicode="et" horiz-adv-x="1253" 
d="M1077 709l92 -3l72 -1l-1 -22l-14 -54l-5 -31l-17 -83l-23 -105l-6 -2l-11 -4l-106 2l-1 -52l2 -311l-6 -48l-83 -3l-90 2l-93 1l-27 -1l-41 6v40l-2 100s2 67 3 114v155h-32l-1 -23l-122 -35l-137 -46l-38 -14l47 -1c47 1 115 1 115 1l99 -3h38v-44l-3 -38v-134v-40
l2 -40l-108 -1l-248 5h-15l-65 -2l-42 1l-111 -5l-37 3l-12 1l-28 3l-10 2l-10 1v40l-2 100s1 67 2 114l1 202l2 80l-3 79l56 10l18 82h79h80l200 1c47 1 146 1 146 1l20 -1v2l79 -4l80 1l202 1c47 1 114 1 115 1zM339 356l133 46l-132 -4l-1 -41v-1z" />
    <glyph glyph-name="GT" unicode="GT" horiz-adv-x="1307" 
d="M1294 686l-3 -57l2 -30l-1 -80l-1 -107l-8 -3l-10 -4l-162 3l-2 -53l3 -308l-6 -48l-84 -2l-89 1l-93 1l-27 1l-41 1v41l-2 99s2 68 3 114v147l-28 2l-46 -1l-21 -3l-308 6h-32l-1 -52v-53l83 21h-65v11l-1 20l-1 35l20 1h67h77l128 -2s13 -1 31 -2h52c1 0 26 -3 26 -3
v-37l-8 -149l-2 -3l-3 -41l-13 -57l-7 -2l-16 -4l-23 -2l-19 -7l-340 -88l-185 -40l-30 -8l-2 13l-2 18l1 18h-37l-27 1l-41 6v40l-2 100s1 67 2 114l1 202l2 80l-3 79l54 10l20 83l119 -4l80 1l202 1c47 0 115 1 115 1h5h31h56l88 1l219 -2h125l101 1l75 -1z" />
    <glyph glyph-name="Gt" unicode="Gt" horiz-adv-x="1306" 
d="M1224 706l71 -1l-1 -22l-14 -53l-5 -31l-17 -82l-23 -105l-5 -3l-11 -3l-107 2l-1 -53l3 -311l-7 -48l-83 -2l-89 1l-93 1l-28 -1l-40 6v41l-2 99s1 68 2 114l1 147l-17 3l-50 -2l-30 -3l-308 6h-32l-1 -52v-53l83 21h-65v11l-1 20l-1 35l20 1h67h77l128 -2s13 -1 31 -2
h52c1 0 26 -3 26 -3v-37l-8 -149l-2 -3l-3 -41l-13 -57l-7 -2l-16 -4l-23 -2l-19 -7l-340 -88l-185 -40l-30 -8l-2 13l-2 18l1 18h-37l-27 1l-41 6v40l-2 100s1 67 2 114l1 202l2 80l-3 79l54 10l20 83l119 -4l80 1l202 1h115l64 -2l44 2h36l80 1l202 1c47 0 115 1 115 1z
" />
    <glyph glyph-name=".notdef" horiz-adv-x="500" 
 />
    <glyph glyph-name="B" unicode="B" horiz-adv-x="751" 
d="M2 254l1 202l2 80l-3 79l66 13l18 82l79 -3l80 4l202 -2h115l92 -2l72 -1l-1 -22l-10 -45l-6 -34l-17 -80l-21 -99l-5 -35l69 -2l4 -47l-3 -167l3 -156l-8 -29l-76 -1l-10 -1l-94 2l-112 1l-26 2l-81 1l-80 -2l-40 1l-113 -1l-38 2h-11l-26 3l-12 2l-10 1v40l-2 100
s1 67 2 114zM341 411l-1 -17l58 -1v18h-53h-4zM401 303h-61v-15h61v15z" />
    <glyph glyph-name="C" unicode="C" horiz-adv-x="709" 
d="M2 0v40l-2 100s1 67 2 114l1 202l2 80l1 168l110 6l16 -3h23l80 1l202 -3c47 1 115 1 115 1h54l81 -1l1 -2h3l6 -43v-21v-81v-78l-3 -47l1 -35l-4 -42l-233 -2l-98 2l-1 46v5l-18 1l-2 -54l1 -66h19v4l3 45l96 2l233 -2l4 -42l-1 -30l3 -20v-21v-81v-78l-3 -44l1 -5
l-1 -2l-1 -22l-6 -1v-1h-5l-37 -3l-197 3l-25 1h-27l-12 1l-52 1h-16l-64 -2h-40l-113 -1l-38 3c-2 1 -4 1 -6 1v-2l-32 5l-12 1l1 1z" />
    <glyph glyph-name="D" unicode="D" horiz-adv-x="793" 
d="M2 254l1 213l2 69l-3 79l88 17l6 10l2 2l22 35l37 45l23 -5l22 -8l20 -3l343 -75l183 -48l26 -6l1 -10l6 -47l-6 -152l2 -204l-6 -32l-34 -11l-23 -4l-19 -8l-334 -109l-33 -9l-149 -42l-30 -9l-2 12l-3 18l-1 21h-73l-27 1l-41 6v40l-2 100s1 68 2 114zM340 373l-1 -19
v-38l16 5l83 23v4l-40 8z" />
    <glyph glyph-name="E" unicode="E" horiz-adv-x="728" 
d="M2 254l1 202l2 80l-3 79l56 11l18 81l79 -3l80 3l202 -2c47 1 115 1 115 1l93 -3h71v-12l-1 -10l-14 -58l-5 -31l-17 -80l-23 -104l-6 -2l-10 -4l-299 6l-1 -17l205 -2s60 -3 104 -3h17h12l-2 -36v-16l-2 -33l-101 2l-137 3h-96v-18l97 -1c47 1 115 1 115 1l99 -3l40 -1
l6 -39v-21v-81v-77l-4 -73l-48 -5l-313 6h-18l-62 -2l-40 1l-113 -1l-38 3h-7v-1l-30 3l-13 1l1 1l-10 1v40l-2 100s1 67 2 114z" />
    <glyph glyph-name="F" unicode="F" horiz-adv-x="709" 
d="M5 536l-3 79l56 11l19 81l78 -3l80 4l202 -3c47 1 115 1 115 1l99 -3h40l6 -40v-24v-81v-78l-4 -73l-48 -5l-304 6l-1 -18l97 -1h115l99 -2l40 -1l6 -39v-22v-80v-79l-4 -73l-48 -5l-304 6l1 -51l-7 -48l-83 -3l-89 2l-93 1h-16h-8l-44 5v40l-2 100s1 67 2 114l1 202z
" />
    <glyph glyph-name="G" unicode="G" horiz-adv-x="768" 
d="M2 254l1 202l2 80l-3 79l54 10l20 84l119 -3h80l202 1c47 1 115 1 115 1l93 -3l71 1v-11l-1 -11l-14 -62l-5 -31l-17 -80l-23 -105l-16 -6l-308 6h-32l-1 -52v-53l83 21h-65v11l-1 20l-1 35l20 1h67h77l128 -2s13 -1 31 -2h52c1 0 26 -3 26 -3v-37l-8 -149l-2 -3l-3 -41
l-13 -57l-7 -2l-16 -4l-23 -2l-19 -7l-340 -88l-185 -40l-30 -8l-2 13l-2 18l1 18h-37l-27 1l-41 6v40l-2 100s1 67 2 114z" />
    <glyph glyph-name="H" unicode="H" horiz-adv-x="713" 
d="M2 265l1 202l2 107l-3 129l276 6l60 -3l7 -81l-3 -130h17l1 78l-2 131h110l226 1l7 -81l-6 -260l3 -322l-7 -48l-83 -3l-89 2l-94 1h-15l-13 -1l-39 8v40l-2 109s0 22 1 50l-10 1l-7 -1l2 -157l-7 -48l-83 -3l-89 2l-93 1l-28 -1l-40 6v40l-2 111s1 67 2 114z" />
    <glyph glyph-name="I" unicode="I" horiz-adv-x="357" 
d="M2 257l1 197l2 135l-3 111l71 6l196 -4l74 2l2 -97l-6 -253l3 -312l-7 -47l-83 -3h-89l-93 1l-27 1l-41 6v39l-2 107s1 66 2 111z" />
    <glyph glyph-name="J" unicode="J" horiz-adv-x="572" 
d="M4 -43l-4 17l2 154v26l2 77l3 16l27 7l44 14l116 32l23 7v29l1 131l1 106l-2 126l102 1l56 4l178 3l7 -82l-6 -261l3 -177l-4 -24l2 -47l-34 -11l-22 -4l-18 -8l-273 -90l-174 -48l-28 -10z" />
    <glyph glyph-name="K" unicode="K" 
d="M3 241v202c-2 47 -3 115 -3 115l2 99v39l38 10l6 -2h24l93 1l90 2l83 -3l3 -29l3 -15v-6l5 -66l-5 -209l15 6l1 34l-2 17l5 132l-3 91l7 45l83 3l89 -1l93 -1s25 -1 26 -1s42 -5 42 -5v-41l-1 -102l-2 -73l3 -49v-8l-7 -3l-13 -5l-98 -35l-41 -16l59 -24l100 -39l-1 -199
v-45l2 -28l-1 -32l-45 -6l-24 -1l-93 1l-91 -3l-84 1l-4 75l1 62l-2 66l1 107l-15 -5v-101l3 -136l-1 -15v-2l-1 -6l-5 -43l-10 1l-74 -2l-89 2l-93 1l-27 -1l-41 6l-2 29l1 37l-1 73s1 36 1 73v28z" />
    <glyph glyph-name="L" unicode="L" horiz-adv-x="630" 
d="M2 254l1 202l2 80l-3 162l103 6l233 1l7 -87l-6 -264l1 -67h48h102l87 -3h36l5 -39v-21v-81v-78l-4 -69l-42 -6l-248 6l-72 -2l-70 1l-92 -1l-25 3c-4 0 -10 -3 -15 -3l-20 1l-28 5v40l-2 100s1 67 2 114z" />
    <glyph glyph-name="M" unicode="M" horiz-adv-x="1070" 
d="M4 441c0 18 -1 39 -1 59l-3 93l3 41l1 24v41l41 5c1 0 24 1 24 1l12 1l84 -1l90 2l68 -1l72 -1l138 1h77l76 -1l138 -53l109 -41l108 -38l8 -2l6 -49l-2 -149v-62l5 -214l-5 -62v-30l-40 -5l-121 -2l-89 -2l-83 3l-7 47l3 259l-1 79l-5 209l1 16l-12 4v-30l-1 -79l1 -43
v-202l3 -115v-6l1 -40l-3 -31v-22v-41l-44 -6l-117 -1l-107 -3l-66 4l-6 47l-1 33l1 26l1 84l-1 44v207l-3 118l-1 35l1 18h-14v-11l-1 -107l1 -30v-202c1 -25 2 -55 2 -78l2 -79l-3 -35v-22v-41l-41 -5h-1l-26 -1l-93 -1l-90 -2l-83 3l-6 47v29v19l1 112v30z" />
    <glyph glyph-name="N" unicode="N" horiz-adv-x="766" 
d="M5 360l-5 234l3 31l-1 36l1 44h302l28 2l65 1l2 -33v-17l1 -29l5 -89l8 -109l16 -234l-1 47v202c-2 47 -3 115 -3 115l2 99v40l41 6h27l93 2l72 -2l85 -3l5 -48l-3 -312l6 -234l-2 -26l1 -36l-1 -45h-10l-52 -4h-240l-54 -1h-10l-25 2l-6 92l-15 235l-14 187l1 -50
l1 -202c1 -47 2 -115 2 -115l-2 -99v-40l-41 -6l-27 -1l-77 -1l-90 -2l-83 3l-6 48z" />
    <glyph glyph-name="O" unicode="O" 
d="M3 467l2 107l-3 125l78 1l75 4l80 2l54 -1h49l99 -1c47 0 115 1 115 1l99 -3l40 -1l5 -2l1 -34l2 -79l-2 -82v-24l-2 -26l-2 -101v-82l4 -26v-1v-20v-81v-78l-4 -72l-48 -5l-39 1l-274 4h-18l-62 -2h-40l-113 -1l-75 7l-22 3v40l-2 111s1 67 2 114zM339 365l1 -77h16v119
l-16 1z" />
    <glyph glyph-name="P" unicode="P" horiz-adv-x="712" 
d="M3 442c-2 47 -3 115 -3 115l2 99v41l27 8l8 1l39 1l155 1l22 1l77 -2l54 -2l64 2h46l129 1l77 -8l-4 -28l2 -13l2 -74l-1 -9l-1 -44l-1 -111l-2 -79l3 -53l-3 -10v-65v-78l-3 -72l-44 -5l-279 6h-24v-8l-2 -18l-5 -44l-10 1l-74 -2l-89 2h-93l-27 1l-41 3v29l-1 37l-1 74
s1 34 1 71v29v202zM341 360l17 -1l1 48h-17z" />
    <glyph glyph-name="Q" unicode="Q" horiz-adv-x="790" 
d="M3 456l2 80l-3 79l56 11l19 81l78 -3l80 4l202 -3c47 1 115 1 115 1l99 -3h40l1 -2h4l1 -34v-4v-5l2 -72l-2 -83v-23l-2 -26l-2 -101v-62l85 -7l-44 -206l-21 -84l-29 1l-39 -4l-18 1l-4 -1l-18 1l-273 2h-18l-62 -2l-41 1l-112 2l-38 -2c-7 1 -17 1 -18 1l-19 3l-13 1
l1 1l-10 1v40l-2 100s1 67 2 114zM339 354l1 -63h16v116l-15 1z" />
    <glyph glyph-name="R" unicode="R" horiz-adv-x="712" 
d="M3 442c-2 47 -3 115 -3 115l2 99v39l26 7l1 1l8 1l4 1l35 4l155 -1l22 1l76 -2l51 -1l68 1h50l125 1l77 -8l-2 -14v-28l2 -64l-1 -9l-1 -40l-1 -102l-2 -73l3 -49v-9l-7 -1l-13 -6l-94 -34l13 -5l99 -29v-156v-36l1 -16l-1 -29l-42 -6l-25 -1l-93 2l-90 -1l-84 2l-4 58
l1 45l-1 52v39l-15 -5l3 -128l-3 -15l-5 -44l-10 1l-74 -2l-89 -1h-93l-27 1l-41 3v29l-1 16v22l-1 73s1 35 1 72v28v202zM341 354l1 -87l17 6v19l-3 31l2 84h-15z" />
    <glyph glyph-name="S" unicode="S" horiz-adv-x="725" 
d="M2 314v25l-2 52s1 32 3 54v96l2 37l1 49l4 73l48 5h15v1l75 -2h7l77 3l202 -2h115l37 -1h18l11 -1h26l72 -1l-1 -22l-14 -58l-5 -31l-17 -79l-23 -105l-17 -6h-8l-29 1l-56 1l-75 -1l-127 1v-15h22l208 -4l104 -2h29l-3 -59l3 -32l-3 -117l2 -150l-7 -29h-22l-40 -4
l-137 4h-66s-25 1 -27 1l-40 -1v0l-42 1l-234 -3l-85 7l3 197l-2 97l143 -4h81l138 -3l-1 19h-218l-11 1l-67 4h-26z" />
    <glyph glyph-name="U" unicode="U" 
d="M2 267l1 202l2 106l-3 129l147 6l189 -1l7 -82l-6 -261l1 -76l16 -1v179l2 106l-3 132h157l180 2l7 -82l-6 -261v-94l4 -24v-1v-21l-1 -81l1 -73l-2 -25l-2 -48l-48 -5l-219 4h-17l-77 2h-18l-62 -2l-40 1l-113 -2l-27 3l-48 -1l-12 2l-10 1v41l-2 110s1 68 2 115z" />
    <glyph glyph-name="V" unicode="V" 
d="M2 258l1 205l2 81l-3 161h102l235 3l6 -113l-6 -236l2 -273l13 4l-1 52s1 70 3 118v207l2 82l-3 159l289 -3l48 3l7 -107l-7 -239l3 -186l-7 -48l-6 -2l-9 -3l-97 -36l-109 -40l-137 -50l-5 -1h-3l-70 -2l-89 1l-93 1h-28l-40 4v41l-2 100s1 69 2 117z" />
    <glyph glyph-name="T" unicode="T" horiz-adv-x="715" 
d="M182 408l-89 -1l-93 8l2 204l2 91l88 -3l87 1l220 -3c50 1 124 1 124 1l101 1l75 -1l4 -20l-3 -58l2 -31l-1 -79l-1 -108l-7 -2l-11 -4l-162 3l-1 -53l2 -308l-6 -48l-83 -3l-89 2l-94 1l-27 1l-40 1l-1 40l-1 100s1 67 2 114v154z" />
    <glyph glyph-name="W" unicode="W" horiz-adv-x="1066" 
d="M2 258l1 205l2 81l-3 162l103 -2l234 1l6 -110l-6 -236l2 -270h13l-1 53s1 70 3 118v207l2 82l-3 145l12 11l91 -1l223 1l11 -10l6 -94l-6 -239l3 -277l15 5l-1 52s1 70 2 118l1 207l2 82l-3 157l102 -2l234 3l7 -104l-6 -241l3 -186l-7 -48l-6 -2l-9 -3l-97 -36
l-110 -40l-137 -49h-3l-50 -2v-1h-29l-73 -1l-137 3h-72l-69 -2l-89 2l-85 1h-11v2l-24 -3l-41 3v41l-2 100s1 69 2 117z" />
    <glyph glyph-name="X" unicode="X" horiz-adv-x="710" 
d="M103 432l-103 38l1 55v74l-1 60v43l41 3l120 1l90 2l83 -3l4 -45v-90l4 -97l-1 -44l8 -3l7 3v8l4 132l-3 91l2 45l88 3l89 -2l121 -2l41 -4l-1 -41l-1 -60l-1 -73l3 -56l-104 -38l-113 -40l-17 -7l21 -7l110 -37l70 -25l32 -10l-2 -200l2 -51v-53l-41 -3l-28 -2l-93 -1
l-90 -2l-85 3l-4 71l1 62l-1 37l1 173l-8 3l-3 -1l-6 -2l2 -144l-2 -65l1 -64l-2 -70l-87 -3l-89 2l-94 1l-27 2l-42 1v49l1 57l-1 200l32 10l71 24l110 38l20 7l-16 6z" />
    <glyph glyph-name="Y" unicode="Y" 
d="M2 467l1 2l1 106l-2 126l102 6l234 -1l7 -79l-6 -260l2 -93h14l-1 77l2 115v3l2 106l-2 129l102 3l234 2l7 -82l-6 -260l2 -126l-6 -48l-51 -1l-100 -3l-44 1l3 -145l-7 -48l-83 -3l-89 2l-93 1l-28 1l-40 1v40l-2 100l1 53l-86 1l-28 1l-40 6v40l-2 111s1 67 2 114v1v1z
" />
    <glyph glyph-name="Z" unicode="Z" horiz-adv-x="702" 
d="M91 407l-84 7l-7 189l3 103h146l80 1l202 -1c47 1 115 1 115 1l99 -3h40l5 -37l-1 -1c0 -5 1 -24 1 -24l-1 -83v-78l-4 -73h-2v-1l-105 -36l-142 -48l-91 -34h85h115l99 -3h40l6 -39h-1c0 -6 1 -22 1 -22l-1 -81v-72l-4 -74l-48 -5l-312 6l-234 -1l-85 1l4 197l5 79l4 1
l67 21l100 38l113 42l88 31l-62 1z" />
    <glyph glyph-name="A" unicode="A" 
d="M2 254l1 202l2 80l-3 79l44 9l20 83l78 -3l81 5l202 -2c46 0 114 1 115 1l98 -3l41 -1l15 -2l3 -116l-6 -233l2 -310l-6 -47l-66 -6l-106 5h-93s-12 1 -20 1l-48 6l-1 40l-1 97s1 61 2 107h-16l2 -202l-7 -48l-83 -2l-89 2l-93 -3l-27 1l-41 6v40l-2 100s1 67 2 114z
M341 407l-2 -53v-11h17v64h-15z" />
    <glyph glyph-name="space" unicode=" " horiz-adv-x="294" 
 />
    <glyph glyph-name="a" unicode="a" horiz-adv-x="710" 
d="M698 588l-6 -233l1 -82l4 -28h-1c1 -7 1 -19 1 -19l-1 -78v-78l-4 -73l-48 -5h-17h-4l-18 1l-273 5l-234 -2l-93 4l3 183l7 103l-2 12l144 51l137 46l40 15h-13l-234 -2l-87 7l45 206l20 88l79 -3l80 4l202 -2h115l99 -2l40 -1v-1l15 -1zM356 335l-124 -43h3l121 -2v45z
" />
    <glyph glyph-name="b" unicode="b" horiz-adv-x="709" 
d="M3 484l1 110l-2 83l101 15l235 38l7 -85l-2 -94l123 -43l110 -40l98 -36l19 -8h3l-3 -62l2 -80v-111l2 -51v-2l-1 -68l-1 -40l-17 -3l-25 -3h-1c-4 0 -13 -1 -19 -1l-36 -3l-112 1l-40 -1l-62 2l-20 1l-28 -1l-83 -3l-34 1l-168 -4l-48 4v8v39l-2 99s1 68 2 115zM339 361
v-65h18l-1 117l2 51l-17 6z" />
    <glyph glyph-name="c" unicode="c" horiz-adv-x="709" 
d="M2 254l1 202l2 80l-3 79l56 11l19 81l78 -3h80l202 -2c47 1 115 1 115 1l7 -1l47 1l81 -1l1 -2h3l6 -37v-24v-81v-78l-3 -41l1 -33l-4 -37l-232 -9l-99 -5l-1 47v6h-18l-2 -54l1 -68h19v6l3 45l96 -1l233 -1l4 -50l-3 -132l3 -134l-8 -26l-81 -1l-50 1l-80 -1l-202 3h-32
l-83 -2l-58 2h-31l-15 1l-12 -1l-17 -1l-13 2l-11 4v40l-2 100s1 67 2 114z" />
    <glyph glyph-name="d" unicode="d" horiz-adv-x="709" 
d="M3 274l2 79l-3 63h2l7 3l13 5l98 36l109 40l125 44l1 42l-3 82l101 16l237 37l5 -84l-4 -284l-1 -86l1 -21l-1 -4l1 -30l3 -68l-1 -79v-71l-48 -5l-262 5l-50 1h-21l-62 -2h-40l-111 -1l-36 1l-15 1l-27 3l-9 1l-12 2v40l-2 70v1v1s1 3 1 7c0 7 1 21 1 44zM339 456l2 -52
l-1 -116h15v173z" />
    <glyph glyph-name="e" unicode="e" horiz-adv-x="736" 
d="M3 456l2 80l-3 79l56 10l18 80h79h80l200 1c47 1 146 1 146 1l99 -3l44 -4l-8 -43l-7 -34l-11 -66l-11 -69l-15 -72l-4 -31l-103 -34l-137 -46l-38 -14l47 -1c47 1 115 1 115 1l128 -3h38v-44l-3 -38v-134v-37l2 -40l-137 -1l-248 3h-15l-65 -2l-42 1l-111 -3l-37 1h-12
l-28 3l-10 2l-10 1v40l-2 100s1 67 2 114zM339 357v-1l133 46l-132 -4z" />
    <glyph glyph-name="f" unicode="f" horiz-adv-x="709" 
d="M691 702l6 -42v-21v-81v-78l-4 -73l-48 -5l-304 6l-1 -17l49 -1c40 1 98 1 98 1l84 -3l35 -1l4 -35l1 -24l-1 -81v-78l-3 -73l-41 -5l-225 5l1 -55l-7 -46l-83 -2l-89 1l-93 1l-15 1l-53 4v40l-2 100s1 67 2 114l1 202l2 80l-3 79l56 11l19 81l78 -3h80h202
c47 1 115 1 115 1l99 -3h40z" />
    <glyph glyph-name="g" unicode="g" horiz-adv-x="710" 
d="M2 690l9 2l12 1l19 4l19 1l38 2l113 2l41 1l61 -2h48h83l34 -1l166 4l48 -6v-7h3v-40l2 -99s-2 -68 -3 -114v-139l1 -13l-1 -4v-68l-2 -73l1 -25l-2 -72l1 -21l-39 -13l-24 -5l-20 -6l-339 -88l-179 -37l-32 -7l1 47l2 50l4 88l-2 27l3 38l-1 25l2 32l36 10l47 12l45 8
l-78 29l-97 35l-12 5l-8 2v9l3 52l-2 80l-1 111l-2 53l2 70v40zM344 286l-4 -50l2 -1l14 4l3 99l-1 64h-17z" />
    <glyph glyph-name="h" unicode="h" horiz-adv-x="708" 
d="M2 253l1 223l2 110l-3 79l101 20l237 38l5 -86l-2 -96l123 -43l110 -40l98 -36l12 -5l6 -3l1 -9l-2 -51l1 -80l1 -111l2 -51l1 -5l-3 -66v-41l-42 -6h-25l-91 -1l-88 -2l-81 2l-4 49l1 160l-3 203l2 47l-21 7l-2 -106v-313l-3 -48l-84 -3l-89 2l-93 1s-18 1 -24 1l-6 -3
l-38 10v39l-2 99s1 68 2 115z" />
    <glyph glyph-name="i" unicode="i" horiz-adv-x="357" 
d="M2 163l1 111l2 79l-3 80l101 18l121 21l-61 2l-93 1h-27l-41 6l-2 49l2 24l1 43l-1 68l101 19l236 41l2 -58l-2 -50l1 -82l-3 -43l4 1v-10l4 -47l-6 -234l3 -161l-7 -48l-83 -2l-89 1l-93 1l-28 1l-40 6v40l-2 70l1 9s1 21 1 44z" />
    <glyph glyph-name="j" unicode="j" horiz-adv-x="553" 
d="M2 53l1 27l3 25v46l20 12l23 8l41 12l112 33v58l2 79l-3 80l101 18l121 21l-61 2l-93 1h-27l-40 6l-3 49l2 24l1 43l-1 68l101 19l236 41l2 -58l-2 -50l1 -82l-3 -43h4l-2 -57v-144l1 -3l-1 -28v-58l3 -161l-3 -20l-12 -2l-34 -12l-24 -8l-20 -6l-241 -82l-179 -40
l-25 -9l-3 52l1 50z" />
    <glyph glyph-name="k" unicode="k" horiz-adv-x="718" 
d="M3 454l2 80l2 66l-3 78l101 23l235 40l7 -88l-6 -276l20 7v84l2 50l-3 76l102 44l238 78l4 -96l-2 -113l-1 -43l3 -38l-20 -8l-98 -36l-41 -15l59 -24l100 -39l-1 -199v-15l3 -32l-3 -59l-45 -6c-7 -1 -24 -1 -24 -1l-93 1l-90 -3l-84 4l-4 73l1 62l-2 66l1 107l-21 -7
l2 -240l-2 -13l-7 -46l-83 -4l-89 2l-93 -1l-27 1l-41 3v41l-2 99s1 68 2 115z" />
    <glyph glyph-name="l" unicode="l" horiz-adv-x="464" 
d="M2 254l1 202l2 130l-3 79l101 20l235 40l7 -88l-6 -283l1 -63h27l85 -8l-41 -206l-20 -85l-75 3l-64 -2l-89 2l-93 -1h-16l-52 6v40l-2 99s1 68 2 115z" />
    <glyph glyph-name="m" unicode="m" horiz-adv-x="1064" 
d="M2 253l1 202l2 80l-3 113l101 17l236 41l3 -56l15 5l338 51l2 -12l-1 -19l1 -31l8 1l143 29l85 12l111 20l3 -7l-1 -5l2 -13l4 -95l-6 -233l3 -313l-6 -44l-84 -2l-89 1l-93 1l-27 1l-41 6v36l-2 100s1 67 3 114v202l2 80l-1 29l-13 -2l-5 -210l2 -313l-6 -43l-66 -6
l-106 4l-93 1l-28 1l-40 6l-1 36l-1 100s1 67 2 114v202l2 80l-1 29l-12 -2l-6 -208l3 -313l-7 -44l-83 -2l-89 1l-93 1l-27 1l-41 2v40l-2 100s1 67 2 114z" />
    <glyph glyph-name="n" unicode="n" 
d="M2 254l1 202l2 80l-3 110l101 23l134 21l102 17l3 -60l13 2l150 29l25 6l163 27l4 -21l-1 -6l3 -98l-6 -233l2 -313l-6 -46l-66 -5l-106 4l-121 2l-40 6l-1 38l-1 100s1 67 2 114v202l2 80l-1 29l-12 -2l-6 -208l3 -313l-7 -46l-83 -2l-89 1l-93 1l-27 1l-41 4v40l-2 100
s1 67 2 114z" />
    <glyph glyph-name="o" unicode="o" 
d="M2 615l56 11l18 81l79 -3h80l202 -2c47 1 115 1 115 1l99 -3h40l1 -2h4l1 -34v-4l2 -74l-2 -83v-23l-2 -25l-2 -102v-82l4 -26v-21v-81v-78l-4 -70l-48 -5h-22h-17l-274 5h-18l-62 -1h-41l-112 -1l-38 3c-7 1 -18 -2 -18 -2l-20 3l-12 1l-9 2v40l-2 100s1 67 2 114l1 202
l2 80zM339 354l1 -66h16v119l-15 1z" />
    <glyph glyph-name="p" unicode="p" horiz-adv-x="712" 
d="M3 456l2 80l-3 79l56 11l19 82l78 -3l80 1l161 -2l52 2l75 -2c17 0 29 1 29 1l28 -1l51 -1s24 -1 26 -1h6l28 -1l5 -31l2 -13l2 -70l-1 -9l-1 -44l-1 -111l-1 -80l2 -62l-9 -3l-13 -6l-97 -35l-110 -41l-128 -44l1 -109l-7 -48l-83 -3l-89 2l-93 1l-27 -1l-41 6v40
l-2 100s1 67 2 114zM339 356l1 -122l20 7l-4 51l3 117h-18z" />
    <glyph glyph-name="q" unicode="q" horiz-adv-x="709" 
d="M2 692l18 2l22 4h22l37 4l111 -2l41 1l61 -2h20l28 1l83 3l35 -1l167 3l48 -5l1 -8v-39l1 -99s-1 -68 -2 -115v-223l-2 -129l3 -79l-101 -19l-236 -41l-7 87l1 41l-122 43l-109 40l-27 11l-93 30l3 138l-2 80l-1 111c-1 35 -2 53 -2 53l2 69v41zM344 287l-4 -124l15 -5
l3 181v65h-17z" />
    <glyph glyph-name="r" unicode="r" horiz-adv-x="579" 
d="M2 253l1 202l2 80l-3 81l56 10l18 79h79h81l46 -2c47 1 146 1 146 1l99 -1l44 -1l-10 -48l-6 -33l-11 -66l-11 -74l-17 -79l-60 -1l-116 3l-1 -51l3 -310l-7 -48l-83 -2l-89 1l-93 1h-27l-41 4v40l-2 99s1 68 2 115z" />
    <glyph glyph-name="s" unicode="s" horiz-adv-x="724" 
d="M646 404l-10 -3l-296 6l1 -17h22l207 -3c1 0 60 -3 105 -3h17h11l-2 -50v-10l2 -34l-3 -111l3 -158l-8 -29h-21l-40 -1l-138 1l-92 1l-41 3l-42 1l-233 -5l-88 8l47 206l21 88l79 -4h80l138 -3l-1 21h-229v1l-66 4h-27l-40 3l-1 11v16l-1 48s1 32 2 53v96l2 37l-3 44
l53 4l18 81l79 -3h80h202h115l93 -2l71 -1v-11l-1 -11l-14 -56l-5 -31l-17 -79l-23 -106z" />
    <glyph glyph-name="t" unicode="t" 
d="M144 703h80l202 1c47 1 115 1 115 1l92 -3h72l-1 -22l-14 -55l-5 -31l-17 -82l-23 -106l-6 -2l-11 -3l-106 2l-1 -53l2 -311l-6 -45l-83 -3l-89 2l-94 1l-27 -1l-40 3l-1 40l-1 100s1 68 2 114v155l-97 -1l-87 8l45 206l20 88z" />
    <glyph glyph-name="u" unicode="u" horiz-adv-x="713" 
d="M693 -4l-48 -5l-313 5h-19l-61 -2l-40 1l-113 -4l-38 3h-18l-19 3l-22 3v40l-2 111s1 67 2 114l1 202l2 107l-3 83l101 18l100 19l135 17l7 -86l-6 -260l1 -77h18l1 178l1 107l-2 81l101 20l235 39l7 -89l-6 -260l1 -110l1 -9v-21v-61l1 -120l-4 -27z" />
    <glyph glyph-name="v" unicode="v" horiz-adv-x="713" 
d="M576 87l-109 -40l-137 -52h-5h-4l-69 -3l-89 2h-93l-28 1l-40 5v41l-2 100l2 117l1 205l2 115l-3 81l101 19l235 41l7 -88l-6 -272l2 -273l15 5l-1 51s2 70 3 118v207l2 117v81l104 25l230 36l7 -90l-6 -274l2 -186l-6 -48l-15 -4l-9 -4z" />
    <glyph glyph-name="w" unicode="w" horiz-adv-x="1066" 
d="M2 257l1 205l2 116l-3 81l101 18l100 18l135 24l7 -89l-6 -271l2 -270l13 -1l-1 54s1 69 3 117v208l2 116l-3 72l4 12l97 16l23 8l206 32l7 -10l7 -77l-7 -274l3 -278l15 6l-1 52s1 69 2 117l1 208l2 116l-3 81l101 21l71 11l78 11l86 18l7 -89l-6 -274l3 -186l-7 -48
l-15 -6l-97 -35l-110 -40l-140 -52l-50 -2l-29 -1h-73l-137 3h-72l-69 -2l-89 2l-83 -1h-13v1c-6 0 -23 -1 -24 -1v1l-41 5v40l-2 101s1 69 2 116z" />
    <glyph glyph-name="x" unicode="x" horiz-adv-x="710" 
d="M40 704l28 1h93l90 2l85 -2l4 -46v-89v-79l1 -62l8 -3l7 3v8l4 132v91l1 45l86 2l89 -2h93l27 -1c1 0 41 -6 41 -6v-39l-1 -60l-1 -73l3 -56l-104 -38l-76 -29l-54 -18l20 -7l111 -36l70 -26l32 -10l-1 -200l1 -55v-49l-41 -5l-28 -1l-93 -1l-90 -3l-85 1l-4 77l1 60
l-2 66l2 142l-8 5l-3 -1l-6 -2l2 -144l-2 -65l1 -62l-2 -76l-87 -2l-89 2l-94 1h-28l-41 6v49l1 57l-1 200l33 10l70 24l109 37l21 8l-15 6l-115 41l-103 38l3 55l-2 74l-1 60v42l40 3v0z" />
    <glyph glyph-name="y" unicode="y" horiz-adv-x="710" 
d="M335 703l7 -65l-3 -146l5 -203l-4 -50l2 -1l14 4l3 99l-3 316l7 48l83 2l89 -1l93 -1l26 -1l6 1l36 -7v-40l2 -103s-1 -67 -3 -114v-138l1 -13l-1 -5v-67l-1 -74v-25l-2 -72l1 -20l-39 -14l-24 -4l-20 -7l-339 -87l-179 -37l-32 -8l2 47l1 51l4 88l-2 27l3 38v25l2 31
l35 11l47 11l45 9l-77 28l-98 36l-12 4l-8 2v10l3 51l-2 81v110l-3 54l2 72v41l42 6h26l93 1l90 2z" />
    <glyph glyph-name="z" unicode="z" horiz-adv-x="698" 
d="M144 706h80l202 -2c47 1 114 1 115 1l99 -3h40l6 -40v-21l-1 -81v-78l-4 -73l-107 -37l-142 -48l-91 -34l85 -1c47 1 114 1 115 1l99 -3h40l6 -40v-21l-1 -81v-77l-4 -73l-48 -5l-312 6l-234 -2l-87 6l42 205l14 82l24 11l102 37l113 43l88 31l-62 1l-234 -3l-87 8
l44 206l20 88z" />
    <glyph glyph-name="zero" unicode="0" 
d="M699 588l-6 -233l2 -265l-6 -45l-47 -5l-3 -45l-48 -5l-259 6l-218 -2l-62 6v44h-9l-41 6v40l-2 100l2 66l1 202l2 80l-3 79l56 10l19 82l78 -3h80l146 1c47 1 115 1 115 1l99 -3h41l5 -38v-14l9 1l45 -2zM356 409h-15l-2 -53l1 -66h16v119z" />
    <glyph glyph-name="one" unicode="1" horiz-adv-x="698" 
d="M321 -2l-234 -4l-87 6l45 206l20 88l79 -3h67l1 55v63l-30 -1l-88 8l45 206l20 88l75 -3l65 2l89 -2h94l26 -1l42 -6v-40l2 -100s-2 -68 -3 -114v-156l91 -3l40 -1l5 -42c0 -6 1 -18 1 -18l-1 -78v-78l-4 -73l-48 -5z" />
    <glyph glyph-name="two" unicode="2" horiz-adv-x="716" 
d="M69 -6l-39 4l-27 2l-3 22l3 154l-3 117l3 40l-1 13l-1 13l4 19l1 9h27l100 2l208 3h21l1 17l-36 1l-234 -3l-85 8l6 204l8 90l128 -3h80l202 3c47 0 114 1 115 1l99 -3l30 -1l1 -40l-3 -35l28 -3l-3 -43l2 -42v-89l3 -55l-2 -46v-25l-42 -3h-26l-66 -1h-68h-49h-26h-85
l-3 -35l1 -3h22l6 23h219l116 -5l-3 -47l2 -37v-93c1 -22 3 -54 3 -55l-2 -48v-13l2 -11l-14 -1l-74 -7l-233 1l-42 -2h-41l-93 2z" />
    <glyph glyph-name="three" unicode="3" horiz-adv-x="710" 
d="M329 -4l-234 -4l-85 8l8 203l-5 91l138 -3h81l124 -1v17l-264 1l-1 38l-3 44l11 1l13 1l98 -1l110 1l36 -1v18l-39 1l-234 -3l-83 8l39 206l21 88l79 -3l81 5l201 -3c47 1 115 1 115 1l99 -3h41l4 -29l11 2l7 -86l-6 -239l1 -104l1 -24v-21l1 -163l-5 -38l-1 -9l-9 -1
l-39 -4l-233 5h-9z" />
    <glyph glyph-name="four" unicode="4" 
d="M699 588l-6 -233l2 -313l-6 -46l-66 -6l-107 3l-106 2h-14l-41 6l1 40l-1 35l-23 1l-330 2l-2 66l32 172l13 62l34 152l20 90l20 93l79 -4l80 1l155 -2c47 0 114 1 115 1l98 -3l41 -1v-1l8 -1zM356 255v138l-3 -17l-8 -56l-24 -126l-5 -22h38c0 23 1 57 2 83z" />
    <glyph glyph-name="five" unicode="5" horiz-adv-x="715" 
d="M321 -2l-233 -4l-88 8l2 11v13l-1 48s1 32 2 53v96l2 37l-3 43l103 4l231 1l7 -21h25l-2 37h-40l-74 -1h-89l-121 1l-40 3l-1 10v15l-1 47s1 32 2 54v89l2 37l-3 44l59 5l18 80l79 -2l80 2h202h115l99 -2l44 -1l-16 -77l-15 -70l-13 -72l-20 -81l-51 -1l-242 4l1 -18h21
l208 -2l105 -2h27l1 -12l-1 -17l-2 -25l3 -40l-3 -113l3 -154l-8 -29h-22l-40 -4l-137 4l-93 -3l-40 3z" />
    <glyph glyph-name="six" unicode="6" horiz-adv-x="709" 
d="M12 0l-10 2v40l-2 99s1 68 2 115l1 202l2 80l-3 79l44 8l20 84l78 -3h81l201 1c47 1 115 1 116 1l98 -3h41l5 -37v-1v-23v-84v-78l-4 -74l-48 -5l-293 6l-1 -20l92 -1l26 1l234 -2l4 -48l-2 -73l3 -16v-24v-81v-75l-2 -31v-17l-1 -5l-1 -20l-5 -1v-2l-26 -1l-17 -1l-53 1
h-76l-84 3h-32l-68 2h-18l-62 -2h-40l-113 -1h-38c-3 1 -7 1 -11 1zM340 304v-20l51 -1v21h-51z" />
    <glyph glyph-name="seven" unicode="7" horiz-adv-x="717" 
d="M445 64l-41 -69l-158 -1l-109 1l-41 1l-96 4l47 54l15 26l54 79l101 150l58 100l-188 -2l-87 8l45 206l20 88l78 -3l81 5l202 -2c47 0 114 1 115 1l92 -3l72 -1l-1 -21l-5 -59l-6 -45l-9 -64l-10 -83l-63 -94l-118 -198z" />
    <glyph glyph-name="eight" unicode="8" 
d="M697 224v-81v-77l-4 -71l-48 -5h-18h-4l-17 1l-274 3h-28l-52 -2l-41 1l-112 -1l-38 1l-18 1l-41 6v40l-2 100s1 67 2 114l1 55l17 16l17 22l-21 19l-13 14v76l2 80l-3 79l56 11l19 81l78 1l80 1l202 -2c47 0 115 1 115 1l99 -3l40 -1l1 -2h4l1 -34l2 -82l-2 -83v-23
l-1 -21l-2 -70l-21 -23l-21 -19l23 -22l20 -22v-33l2 -24v-22zM331 395l34 -1v19l-33 1v0zM331 302v-20h34v20h-34z" />
    <glyph glyph-name="nine" unicode="9" horiz-adv-x="706" 
d="M220 710l202 -3c47 1 115 1 115 1l99 -3h18l37 -2l3 -115l-6 -233l1 -82l3 -24l1 -23l-1 -81v-77l-4 -73l-48 -3h-17h-4l-18 1l-273 3l-234 -2l-87 6l44 206l15 88l85 -3h80l121 -1v19h-95h-9h-36h-82l-2 1h-90l-35 3l-1 11v14l-2 50l3 51v96l2 39l-3 43l40 9l19 83h79z
M300 416v-19h32h20v18l-35 1h-17z" />
    <glyph glyph-name="acute" unicode="&#xb4;" horiz-adv-x="360" 
d="M348 835l-2 -15v-46l-102 -16l-142 -26l-102 -16v37l1 38l8 3l13 3l101 23l113 26l15 5s37 7 83 19l13 3z" />
    <glyph glyph-name="grave" unicode="`" horiz-adv-x="361" 
d="M105 758l-103 16l1 46l-3 15l1 24v14l13 -3l117 -26l94 -24l101 -23l21 -6l2 -38l-1 -37l-102 16z" />
    <glyph glyph-name="circumflex" unicode="&#x2c6;" horiz-adv-x="365" 
d="M323 815l12 -6l18 -7v-80l-54 17l-40 14l-43 19l-41 15l-44 -14l-49 -20l-23 -8l-22 -8l-11 -4l-26 -5v78l24 8l17 8l11 5l12 6l87 34l24 8l33 -11l29 -11l32 -15l31 -15l11 -4z" />
    <glyph glyph-name="ring" unicode="&#x2da;" horiz-adv-x="191" 
d="M5 747l-1 6l-4 60l1 30v19l1 8l40 -1h30l36 2h34h23l10 -2l-1 -35v-32v-17v-6l1 -11l2 -22l2 -32h-29l-17 -1l-8 1l-55 -3l-34 1l-23 -1v1l-9 1zM79 802v-17v-6l19 1l-2 22h-17z" />
    <glyph glyph-name="tilde" unicode="&#x2dc;" horiz-adv-x="355" 
d="M279 837l29 12l34 12l1 -72l-1 -22l-45 -19s-21 -9 -63 -24l-4 -1l-54 26l-24 13l-38 18l-36 -16l-37 -19l-40 -17l-1 41l1 58l46 19s21 10 64 24l4 2l47 -24l28 -12l15 -8l26 -10z" />
    <glyph glyph-name="dieresis" unicode="&#xa8;" horiz-adv-x="377" 
d="M178 746l-1 -22l-2 -11l-39 1h-27l-35 -1h-34h-24l-11 2l-1 84l-1 6v21l-1 12l-2 32h29h15h9l54 3l34 -1h24l9 -1l-1 -35c0 -3 1 -5 1 -6l2 -43l2 -6v-20v-15zM364 831l1 -60v-31v-17l-2 -10l-39 1l-28 1l-36 -2h-32h-24l-9 2h-2l-1 84l-1 25l-1 14v32h28h15h8l54 3
l34 -1h24l9 -1l1 -35z" />
    <glyph glyph-name="AE" unicode="&#xc6;" horiz-adv-x="996" 
d="M654 406v-10l159 -4s69 -3 113 -3h17h12l-2 -59l-2 -38l-110 3l-91 4h-97v-12l98 -1c47 1 69 1 69 1l108 -3l40 -1l6 -38v-22l-1 -81l1 -78l-4 -68l-48 -5l-276 4l-194 -3l-37 3h-10l-28 4l-12 1l-9 2l-1 37l-1 81v19v37c1 21 1 47 2 70h-16l2 -205l-7 -45l-83 -2l-89 -2
l-93 1s-26 1 -27 1l-41 6v40l-2 100s1 67 2 114l1 202l2 85l-3 79l33 6l13 84l55 -4l54 1l135 -2h24c1 1 68 -2 68 -2l29 -1l3 -36v-14l14 59l78 -4l4 1l239 -2c47 0 69 1 69 1l93 -3l71 -1v-11l-1 -11l-7 -54l-4 -29l-17 -85l-20 -105l-6 -2l-10 -4zM356 405h-16l-1 -51
v-11l17 -1v63z" />
    <glyph glyph-name="OE" unicode="&#x152;" horiz-adv-x="996" 
d="M919 -11l-269 1h-5h-40l-64 1l-25 -1l-19 1h-45l-41 2l-15 -1l-18 2l-13 1l-33 -1h-18l-62 -2h-41l-112 -2l-38 3c-2 1 -4 1 -7 1l-31 3l-11 2l-10 1v40l-2 111s1 67 2 114l1 202l2 107l-3 130l89 1l9 1h47h51h140l50 -4h25l3 -35v-25l14 64l78 -3h4l239 1
c47 1 69 0 69 0l92 -2l72 1l-1 -23l-11 -62l-5 -31l-17 -80l-16 -103l-6 -2l-10 -4l-264 4v-10l159 -4s65 -4 110 -4c6 0 11 0 17 1h11l-2 -60l-1 -37l-108 2l-90 5h-97v-13l38 -1l1 1h59h69l105 -2l40 -1l6 -37v-24l-1 -81l1 -78l-4 -66zM356 405l-16 1l-1 -41l1 -77h16
v117z" />
    <glyph glyph-name="ae" unicode="&#xe6;" horiz-adv-x="1018" 
d="M861 -8l-263 1l-72 1l-9 -1l-94 1l-15 1l-76 -1h-234l-93 5l3 184l3 102l-2 12l148 51l137 47l31 14l-4 1l-234 -3l-87 8l3 206l4 87l137 -3l80 1l205 -2l1 3l57 -3l54 1l9 -1l167 -2c47 0 146 1 146 1l99 -3l44 -1l-2 -47l-4 -29l-1 -77l1 -83l-2 -59l-44 -23l-109 -33
l-136 -46l-30 -14l38 -1l115 1l130 -3l38 -1l1 -43l-4 -38v-130v-40l2 -40zM356 334l-124 -43h3l121 -1v44zM753 399l-132 -4l-2 -40v-2z" />
    <glyph glyph-name="oe" unicode="&#x153;" horiz-adv-x="1008" 
d="M855 -9l-244 5l-36 -3l-42 -2l-201 5h-18l-62 -2h-40l-113 -1l-38 1h-18l-20 3l-12 1l-9 2v40l-2 100s1 67 2 114l1 202l2 80l-3 79l56 11l19 81l78 -3h80l198 -2v2h79h80l120 -2c47 1 145 1 145 1l95 1l44 -1l-3 -41l-2 -39l1 -66l-2 -72l-5 -72v-23l-145 -42l-137 -46
l-28 -14l37 -1c47 1 114 1 115 1l126 -3h38v-43l-3 -39l-1 -131l1 -40l2 -40zM356 407l-15 1l-2 -54l1 -66h16v119zM614 353l133 46l-133 -4v-30v-12z" />
    <glyph glyph-name="Ccedilla" unicode="&#xc7;" horiz-adv-x="709" 
d="M696 143l1 -78l-3 -40l-1 -29l-11 -2l-37 -3l-194 -1v-59l1 -39v-31l-32 -3h-21l-13 1l-55 -1h-34h-24l-8 2l-3 34l-1 5l-1 52l1 27h24l55 -2v-16l-1 -34h23l1 66h-119l-32 -1l-113 1l-37 1c-8 1 -20 1 -20 1l-18 3l-13 1l-9 2v40l-2 100s1 67 2 114l1 202l2 80l1 168
l70 1h16h24l12 -2l27 -1l80 2l202 -2c47 1 115 4 115 4h7h47l81 -1l1 -2h3l6 -40v-24l-1 -81l1 -78l-3 -47l1 -35l-4 -42l-233 -2l-98 2l-1 46v5l-18 1l-2 -54l1 -66h19v4l3 45l96 2l233 -2l4 -42l-1 -30l3 -17v-24z" />
    <glyph glyph-name="ccedilla" unicode="&#xe7;" horiz-adv-x="709" 
d="M697 558v-79l-3 -40l1 -34l-4 -37l-232 -8l-99 -5l-1 46v7l-18 -1l-2 -53l1 -68h19v5l3 46l96 -2h233l4 -51l-3 -131l3 -135l-8 -25l-52 -1v0h-2h-27h-26h-24h-80h-20l1 -61l1 -39v-31l-32 -3h-21l-14 1l-54 -1h-34h-24l-9 2l-2 34l-1 5l-1 52l1 27h24l54 -2v-16v-34h23
l1 66l-119 2l-7 -2h-84l-58 1h-31h-8l-27 2l-16 2l-17 3v40l-2 99s1 68 2 115l1 202l2 80l-3 79l56 10l18 82l79 -4l80 1l202 1c47 1 115 1 115 1h7h47l81 -1l1 -3h3l6 -36v-27v-81z" />
    <glyph glyph-name="numbersign" unicode="#" horiz-adv-x="807" 
d="M793 470v-19l-2 -38l-52 1l-1 -84l1 -57c9 -1 18 -1 27 -1h17l12 1l-2 -60l-2 -37l-52 1l1 -107l-1 -80l-226 5l-112 1l3 125l-1 59l-17 1l2 -140l-7 -48l-83 -2l-89 1l-102 1l-59 7v40l-2 111v32h-44l-1 45l-1 50l11 1h11h26v141h-46l-1 46l1 49l10 1l13 1h24l1 57
l-2 132l112 1l225 2l1 -78v-114h14c0 16 -1 28 -1 28l2 114v43l40 3l28 1l93 1l90 2l83 -3l6 -48l-1 -148h26h17h12zM402 280v137l-17 1v-53l1 -86z" />
    <glyph glyph-name="ampersand" unicode="&#x26;" horiz-adv-x="775" 
d="M627 -11l-81 2l-84 1l-24 1l-37 6v21l-2 22l-56 -47l-29 1l-85 -4l-66 -1h-94s-8 1 -15 1l-52 8v59v46v209l98 45l17 8l-19 12l-88 40l-7 5l1 3l-1 55l-2 74l-1 102v47l42 1l26 2l78 -1l4 1l39 -1l40 1l63 -2h20l3 -1l39 -1h33v-11l-1 -13l-1 -53l2 -32l-3 -79l-1 -102
l-41 -2h-23v-18h23l59 1v38l2 4l-3 76l92 19l217 41l-1 -88l-2 -97c9 0 19 -1 29 -1c5 0 11 0 16 1h12l-2 -41v-19l-2 -37l-53 2l2 -254l-6 -47zM401 298h-83v-18h18c21 0 47 1 65 1v17z" />
    <glyph glyph-name="germandbls" unicode="&#xdf;" horiz-adv-x="708" 
d="M695 217v-11l1 -11v-67l-63 -39l-94 -52l-92 -46h-88l-4 75l1 63l-2 60l30 2l4 -1l1 20h-6l-10 -2l-19 1l1 147v18l-1 32l-2 113h24h10v22l-12 -1l-18 -1l-18 1v-19l-1 -82l3 -64l-1 -21l2 -264l1 -33v-2v-13l-1 -48h-14l-75 -2l-89 1l-93 1h-27l-41 6v29l-1 38l-1 73
s1 35 1 72v28v202l21 66l11 20l56 96l19 38l23 42h30l90 2l83 -3h29l83 2l89 -2h93s28 -1 29 -1l39 -6v-39l-1 -102l-2 -73l3 -61l-20 -9l-98 -35l-22 -8l40 -14l100 -46z" />
    <glyph glyph-name="yen" unicode="&#xa5;" horiz-adv-x="712" 
d="M677 87h-97l-66 -1l1 -45l-7 -46l-83 -3l-89 2l-93 1h-28l-40 5v41l-1 50h-81h-79l-11 -1l-3 40l1 20l1 37l172 1l-1 11h-172l-1 46v49l11 1l11 1h98h54v10h-9l-93 1l-30 1l-41 6v40v76l1 37v1v3l2 106l-3 125l105 -2l234 7l6 -79l-5 -148l2 -92h14v56v1c0 8 1 0 -1 26
l4 106l-2 125l102 1l238 4l1 -80l-4 -147l3 -125l-6 -48l-51 -2l-101 -2l-28 1v-12c30 -1 64 -1 94 -1c35 0 66 0 80 1h11l3 -39l-1 -20l-2 -38h-184v-12h186l1 -46l-1 -49h-10z" />
    <glyph glyph-name="Euro" unicode="&#x20ac;" horiz-adv-x="767" 
d="M731 -4l-47 -3l-312 4h-16l-64 -2l-51 1h-103l-44 -2l-16 1l-25 3l-11 2v40l-2 100s1 43 2 85h-14h-19l-9 2l1 46v46l41 1l1 36l-15 1h-19l-9 2l1 46v46l42 1v4l2 80l-3 87l58 11l19 75l78 -2l80 1l202 1c47 1 115 1 115 1l91 -1h70v-20l-14 -46l-5 -26l-16 -75v0
l-22 -88l-16 -6l-300 2l-1 -18l159 4l72 -1h95l20 -2l1 -49l-1 -45h-282l-66 -3v-9l132 -3s76 -1 138 -1c30 0 56 1 70 1h10l3 -39l-1 -20l-1 -37l-192 -1l-133 4h-25v-17l97 -1h115l99 -2h39l4 -29s-1 -18 -1 -17v-60l2 -53z" />
    <glyph glyph-name="sterling" unicode="&#xa3;" horiz-adv-x="726" 
d="M305 -6c-47 -1 -115 -2 -115 -2l-92 2h-18h-21l-59 5v79l1 34l-1 35v99l108 64h-108v45v48h9l9 1h81h6l-2 5l-99 42l-2 65l2 51l-3 38l1 91l1 11l8 2l202 1h30l42 3h47h146h99l44 -1l-16 -77l-13 -65l-16 -72l-19 -80l-51 -1l-88 3l5 -20h90h73l9 1l3 -39l-1 -19l-1 -36
l-150 -1c1 -7 2 -13 4 -19l134 2l126 -7l4 -203l-4 -90l-123 3h-80z" />
    <glyph glyph-name="dollar" unicode="$" horiz-adv-x="724" 
d="M646 404l-10 -3l-296 6v-15h23l208 -3s59 -3 104 -3h17l11 -1l-1 -33l-1 -16v-11l2 -34l-3 -117l3 -158l-8 -28l-22 -1l-39 -3l-138 3l-65 1h-24s-2 -32 -2 -33s1 -3 1 -6c0 -5 -1 -13 -2 -28v-5l-38 -4l-20 -1l-32 2l-1 32v38v9h-226l-87 8l47 206l21 88l79 -4h80
l139 -3l-2 23h-218h-1v0h-10v1l-66 4c-1 0 -25 1 -27 1l-41 2v11v14l-1 48s1 32 2 53v96l2 37l-3 44l53 4l18 84l79 -3l80 1l83 -1l-2 27v30v18v1l3 9l45 -1h47l1 -77v-8l25 -1c47 1 115 1 115 1l93 -3h71v-12l-1 -10l-14 -57l-5 -32l-17 -79l-23 -106z" />
    <glyph glyph-name="cent" unicode="&#xa2;" horiz-adv-x="710" 
d="M423 -8l-29 1l-2 -36v-6c0 -5 0 -13 -1 -28l-1 -6l-37 -4h-21l-32 2v32v38l-1 9l-47 -1h-41l-112 -1l-37 1c-3 1 -5 1 -8 1v-2l-30 5l-13 1l1 1l-10 1v40l-2 100s1 67 2 114l1 202l2 80l-3 79l56 11l19 83l78 -4l80 1l66 -1l-3 26l1 31v17l2 10l46 -1h47v-77v-7h43h116h6
l47 1l81 -1l1 -3h4l5 -43c0 -7 1 -19 1 -19l-1 -81v-78l-2 -47v-35l-4 -42l-233 -2l-98 2l-1 46v5l-18 1l-2 -54l1 -66h19v4l3 45l96 2l233 -2l4 -42v-30l2 -22c0 -7 1 -19 1 -19l-1 -81v-78l-2 -42l-1 -7l-1 -21l-11 -2l-37 -3l-195 2h-26h-1z" />
    <glyph glyph-name="Eth" unicode="&#xd0;" horiz-adv-x="762" 
d="M418 3l-29 -2l-1 -1l-83 -2h-15l-51 -2l-183 4l-1 12v6v11v23l-2 100s1 67 2 114l1 56h-56v41v44l5 1l4 1h34h13v59l2 80l-3 149v11l1 8l183 -1l91 -3h62v-2l26 -1l103 -29l110 -41l98 -35l16 -9l1 -37l-1 -43l2 -34v-96l2 -45l1 -2l-2 -61l-1 -27s0 -3 -1 -5
c0 -3 -1 -10 -1 -21v-20l1 -42l-1 -36l-6 -3l-10 -6l-22 -8l-2 -2l-34 -11l-40 -15l-110 -40zM410 105l5 100l-2 51l-4 22l1 140l-3 176l4 37h-14l1 -32l-6 -233l3 -276h17z" />
    <glyph glyph-name="Oslash" unicode="&#xd8;" horiz-adv-x="757" 
d="M616 -7l-259 6l-218 -3l-3 1l-73 -73l-31 31l-32 33l9 11l41 40l9 11l-32 4v41l-2 100s1 19 2 65l1 203l2 79l-3 79l56 11l19 81l78 -3h80l146 -2c47 1 115 1 116 1l86 -2l67 66l5 7l28 -25l13 -14l24 -25l-60 -61l35 -2l4 -61l-6 -233l2 -264l-6 -48l-47 -4l-3 -45z
M381 413l-15 1l-2 -54l1 -66h16v119z" />
    <glyph glyph-name="oslash" unicode="&#xf8;" horiz-adv-x="757" 
d="M616 -7l-259 6l-218 -3l-3 1l-73 -73l-31 31l-32 33l9 11l41 40l9 11l-32 4v41l-2 100s1 19 2 65l1 203l2 79l-3 79l56 11l19 81l78 -3h80l146 -2c47 1 115 1 116 1l86 -2l67 66l5 7l28 -25l13 -14l24 -25l-60 -61l35 -2l4 -61l-6 -233l2 -264l-6 -48l-47 -4l-3 -45z
M381 413l-15 1l-2 -54l1 -66h16v119z" />
    <glyph glyph-name="Lslash" unicode="&#x141;" horiz-adv-x="702" 
d="M685 284l5 -39v-21v-81v-78l-4 -70l-42 -5l-248 6l-72 -2l-70 1l-92 -1l-25 2l-10 1l-53 3v40l-2 100s1 37 2 75l-30 -16l-22 37l-22 41l12 9l50 27l13 7v136l2 80l-3 167l103 4h234l6 -104l-2 -101c33 19 67 37 77 44l7 4l20 -31l9 -18l16 -30l-132 -75l-1 -42l1 -67
l48 -1c42 1 102 1 102 1l87 -3h36z" />
    <glyph glyph-name="lslash" unicode="&#x142;" horiz-adv-x="618" 
d="M606 284l-11 -41l-11 -36l-26 -66l-11 -30l-25 -63l-25 -56l-101 4l-72 -2l-70 1l-92 -1l-25 2l-10 1l-53 3v40l-2 100s1 37 2 75l-30 -16l-22 37l-22 41l12 9l50 27l13 7v136l2 80l-3 167l103 4h234l6 -104l-2 -101c33 19 67 37 77 44l7 4l20 -31l9 -18l16 -30l-132 -75
l-1 -42l1 -67l48 -1c42 1 25 1 25 1l85 -3h36z" />
    <glyph glyph-name="Thorn" unicode="&#xde;" horiz-adv-x="706" 
d="M3 456l2 80l-3 169l103 4h234l3 -69l126 -43l110 -41l40 -14l34 -11l2 -3l22 -7l16 -9v-37v-43h-1l1 -18v-63l1 -4l1 -41l-2 -21v-19l1 -43l-1 -36l-5 -3l-10 -6l-22 -8l-3 -2l-34 -11l-39 -15l-110 -40l-127 -44v-17l-7 -48l-83 -2l-89 1l-93 1s-26 1 -27 1l-41 6v40
l-2 100s1 67 2 114zM339 354l2 -214l19 6l-3 20l5 100l-3 80l1 2l-1 5l3 79l-5 101l3 19l-15 6z" />
    <glyph glyph-name="thorn" unicode="&#xfe;" horiz-adv-x="706" 
d="M3 456l2 80l-3 169l103 4h234l3 -69l126 -43l110 -41l40 -14l34 -11l2 -3l22 -7l16 -9v-37v-43h-1l1 -18v-63l1 -4l1 -41l-2 -21v-19l1 -43l-1 -36l-5 -3l-10 -6l-22 -8l-3 -2l-34 -11l-39 -15l-110 -40l-127 -44v-17l-7 -48l-83 -2l-89 1l-93 1s-26 1 -27 1l-41 6v40
l-2 100s1 67 2 114zM339 354l2 -214l19 6l-3 20l5 100l-3 80l1 2l-1 5l3 79l-5 101l3 19l-15 6z" />
    <glyph glyph-name="florin" unicode="&#x192;" horiz-adv-x="628" 
d="M27 183l20 8l17 6c2 14 4 29 6 41l15 174h-1l13 159l3 28l1 22l13 89l103 -2l80 1h169s49 1 52 0h1l46 -1h40l6 -37v-24l1 -81l1 -78l-4 -73l-48 -6l-141 4l-3 -13h52v1h50s1 0 3 -1l46 -1h40l6 -37s1 -23 1 -24v-81l1 -78l-3 -73l-48 -6l-164 5h-14l-5 -81l-2 -23
l-20 -12l-16 -3l-13 -5l-25 -8l-192 -59l-91 -27l-23 -6v44l1 51l2 87l-2 28l2 37v25l1 23z" />
    <glyph glyph-name="at" unicode="@" horiz-adv-x="706" 
d="M2 67v63l-2 79l2 150l-1 36l2 175l1 77l1 25l1 8l1 30l76 -1l99 -2h94l77 1l26 -1l42 -1l31 -1l239 3l1 -36l1 -39l-1 -52l2 -80l-2 -150l-2 -70l2 -9v-17v-58l1 -55l-3 -58l-44 2h-104h-39l-41 1l-63 -3h-13h-1l-23 3l-187 -8l-80 5l2 134l2 37l-1 60v57l-3 60l5 1
l-2 12l103 39l85 30l-128 -2l-60 2l-2 71l2 33l100 -1l58 1l146 1c34 1 83 1 83 1h72h28l2 -5v-1l9 1v-99l-3 -168l1 -44h19l-1 26l3 99l-4 205h-8h-79l-151 -1h-12h-27l-80 -2l-151 2s-9 0 -22 1v-40l-2 -115v-22v-6l1 -80l-2 -168l2 -134l91 -2h53l189 2l197 3l-30 -45
l-21 -32l-53 -1h-45l-65 -1l-70 -1l-80 -1l-150 2c0 -1 -37 1 -68 1h-19l-1 11h-8l1 21zM347 302l-1 114l-17 -6l-1 -108h19z" />
    <glyph glyph-name="copyright" unicode="&#xa9;" horiz-adv-x="705" 
d="M312 -6l-40 1l-30 1l-239 -2l-1 36l-1 38v52l-1 80l1 149v31l-1 79l1 151s2 37 2 67v20h11v11h21h14l29 -1v-1l109 1h45l43 1h22l70 1l80 1l151 -1s36 -2 67 -2h20v-11h8l-1 -21v-14l-1 -26l1 -64l1 -79l-2 -148l1 -38l-1 -175s-2 -41 -2 -77v-24l-1 -9l-1 -30l-77 1
l-99 2h-94h-76h-29zM320 69c0 0 4 -1 12 -1l28 1l79 1l151 -2s9 0 22 -1l1 40l1 115l1 22l1 255l-1 133l-93 2h-56l-186 -1l-199 -2v-1l-3 -98l1 -240v-20l3 -204l8 -1h79zM348 84h-13l-63 -2l-62 1h-20h-22l-6 1h-16h-18l-32 5v33l-1 75s0 51 1 86l1 152l1 59l-2 60l4 62
l110 2h56l144 2h82h8h28l60 -1v-1l5 -1l5 -31l-1 -1c0 -3 1 -16 1 -16l-1 -58v-59l-3 -57v0v0l-3 -34l-168 -2l-73 2v34h-14h-4v-37v-52h18v3l2 36l71 2l168 -2l3 -34v-17l2 -16v0v-17v-60v-59l-2 -38v-1v0l-1 -19h-5v-2h-20l-12 -2l-43 1l-48 1h-86z" />
    <glyph glyph-name="registered" unicode="&#xae;" horiz-adv-x="532" 
d="M448 577c0 0 0 -1 -1 -5v-22l-1 -56l-1 -40l2 -27v-7l-5 -1l-7 -3l-43 -16l52 -17v-87l1 -21l-1 -28l-7 -1l-16 -2l-15 -1h-49l-47 -1l-36 2l-1 35l1 27l-1 28v21l-17 -6v-18l1 -57v-4l1 -27l-23 2l-23 -1l-46 1h-50s-13 1 -14 1l-24 1v8v9h-1l1 22l-1 42s1 19 1 40v14
v111c-1 26 -2 63 -2 64l1 54v24l7 1l16 5l3 -2l14 2l43 -1l52 1l45 -2h10l46 1l47 -1l49 -1v0v1s10 -1 13 -1l8 -1l17 -1v-4zM272 405v37v28h-15l-1 -32v-39l12 4zM520 547l-1 -111v-28l-1 -131l-1 -58l-1 -18v-7l-1 -22h-57l-74 2h-71h-57h-24l-28 1h-22l-180 -1v8l-1 19
v28v40l-1 59l1 113v22l-1 60l1 113s1 27 1 50v15h9v9l15 -1h11l22 -1l81 1h34l33 1l12 -1l4 1h53l59 1l113 -1s28 -1 51 -1h15v-8v-1h6l-1 -15v-11v-20v-47zM462 552v101h-1l-69 1h-41l-141 -1l-149 -2l-2 -74l3 -179l-3 -15l3 -154h6h59l113 1h8h22l60 1l113 -1s7 -1 16 -1
l1 30l1 86v17v30z" />
    <glyph glyph-name="trademark" unicode="&#x2122;" horiz-adv-x="517" 
d="M293 438h-10l-13 -1l-12 1h-24h-8l-10 -1l-10 1l-8 2l1 93l-1 87h-20v-49l1 -12v-122l-31 1l-4 -1h-2l-39 2l-28 -2l-2 101l1 83h-72l-2 63l1 24h83l12 -1l24 1h12h88l13 1l8 -1h42h12h19l3 -6l4 -14l4 -12l6 -24l4 -11l13 -48l3 -10l3 10l29 101v4l4 10h20h12l86 1
l-1 -24l1 -23l-1 -12l1 -12l-2 -114l1 -85l-2 -2l-70 1l-24 -1l1 74l-13 -42l-3 -12l-5 -19l-20 -1l-53 1l-9 33l-13 42v-4l1 -12l-1 -12v-12v-35z" />
    <glyph glyph-name="parenleft" unicode="(" horiz-adv-x="159" 
d="M0 -48l1 11l1 29l-1 30v127l-2 77l2 224l1 101l2 53l-1 75v39l1 18v6l2 2c11 4 24 11 25 12l52 26l27 12l33 13v-44l-2 -32l-57 -26l-3 -83l1 -272l1 -76l-3 -106l3 -17v-158l25 -12l38 -16v-4l1 -23l-1 -16l-1 -24l-1 -9l-8 4c-10 6 -28 14 -28 14l-54 20l-27 13z" />
    <glyph glyph-name="parenright" unicode=")" horiz-adv-x="157" 
d="M144 22v-30v-29l-3 -11l-22 -11l-28 -15l-54 -19s-18 -7 -28 -12l-8 -5l-1 32v16l1 13v14l36 16l25 12l1 201v156l-1 120l3 16l-3 106l-1 113l-57 26l1 32l-1 44l31 -12l27 -13l53 -29l26 -12l1 -24l1 -38l1 -90l1 -139l1 -46l-2 -96l-2 -78z" />
    <glyph glyph-name="bracketleft" unicode="[" horiz-adv-x="179" 
d="M5 -54v34l-2 60l-3 407v222l1 78l-1 4v16l1 23v-1l1 6h5h5l26 3h58l30 1h28l8 -1v-35l-1 -33l-79 -1v-381l4 -336v-32l23 1l26 -1l31 1v-6v-20l1 -15l-1 -23l-1 -6h-6c-6 1 -15 1 -22 1h-9l-58 -4l-30 1h-26l-8 1z" />
    <glyph glyph-name="bracketright" unicode="]" horiz-adv-x="177" 
d="M163 667l2 -406l-1 -223v-77v-5v-15l-1 -23v-5l-6 -1l-4 1l-27 -3h-57l-31 -2h-28l-8 2l1 34v34h80l-1 382l-1 336l-1 32l-11 -1h-38h-30l-1 6v19v16l1 23v6l6 -1h22h10l57 3h30h26l9 -2v-36v-33z" />
    <glyph glyph-name="braceleft" unicode="{" horiz-adv-x="249" 
d="M75 -54h1v34l-2 60l-2 259l-59 4l-10 4l-3 42l1 49l10 1l9 2l51 -1v47v222v78l1 20l-1 23l1 5h6h4l27 3h58l30 1h27l9 -1l-1 -35v-33l-79 -1l3 -105l-1 -528l2 -116h12h37l31 1v-6v-20v-15l-1 -23v-6h-6l-22 1h-9l-58 -4l-30 1h-26l-8 1z" />
    <glyph glyph-name="braceright" unicode="}" horiz-adv-x="246" 
d="M164 299v-259l-3 -60l1 -34l-1 -36l-9 -1h-25l-31 -1l-57 3h-9h-22h-6l-2 29l1 15v26l31 -1h37h11l1 32l2 336l-2 381l-79 1v33l-2 35h5l4 1h28l30 -1h58l19 -2l12 -1h5l1 -5l1 -24v-15l-1 -3l1 -79l2 -222v-47l50 -2l19 -3l-1 -49l-1 -42l-11 -3z" />
    <glyph glyph-name="bar" unicode="|" horiz-adv-x="100" 
d="M6 -88v10c0 5 -2 41 -2 46c0 44 -1 72 -1 72l-1 111l3 65l-5 231v105l1 51l-1 66v105l2 23h42l38 -3l2 -155l-2 -122v-107l2 -62l2 -336l2 -103l-32 -1l-17 -1l-24 4z" />
    <glyph glyph-name="exclam" unicode="!" horiz-adv-x="354" 
d="M3 211l-3 56l3 245l-3 145l7 48l83 3l89 -2l93 -1l27 -1l41 -6v-40l2 -54l-1 -9l-2 -44v-111l-2 -79l3 -148l-103 -3zM342 136l-3 -25l1 -117l-103 -5l-234 4l-2 54l2 50l-1 33v61l88 3l89 -2l93 -1l27 -1l40 -6z" />
    <glyph glyph-name="slash" unicode="/" horiz-adv-x="275" 
d="M25 -88h-25l3 14c5 22 11 51 15 74c4 24 7 42 7 43l42 203l29 138l17 65l21 112l25 110l9 49l7 28l4 28l3 14l24 1h16h14l27 -1l-47 -229l-45 -216l-9 -44l-20 -84l-6 -39l-32 -169l-11 -45l-11 -55l-10 1l-20 2h-15h-12z" />
    <glyph glyph-name="backslash" unicode="\" horiz-adv-x="275" 
d="M25 788h12h15l20 2l10 1l11 -55l11 -45l32 -169l35 -167l45 -216l47 -229l-27 -1h-14h-16l-24 1l-3 14l-5 28l-6 28l-9 49l-25 110l-25 112l-42 203l-42 203c0 1 -3 19 -7 43c-4 23 -10 52 -15 74l-3 14h25z" />
    <glyph glyph-name="question" unicode="?" horiz-adv-x="703" 
d="M265 -11l-102 5l1 116l-3 25l3 48l41 6l26 1l93 1l90 1l87 -2v-61l-1 -32l2 -50l-2 -54zM691 382l-2 -51v-21v-22l-190 -23l-1 -26l1 -29l-102 -1l-234 -3l-1 15l-3 40l1 46l199 22l-4 15l1 75h-18l-1 -30l-1 -48l-98 -3l-233 2l-4 45l2 56l-3 51v64v81v24l5 39h41l99 3
h114l203 2l79 -1l79 3l14 -60l52 -4l1 -73l1 -38l1 -95c1 -23 2 -55 2 -55z" />
    <glyph glyph-name="questiondown" unicode="&#xbf;" horiz-adv-x="703" 
d="M426 508l102 -5l-1 -116l3 -25l-3 -48l-41 -6l-26 -1l-93 -1l-90 -1l-87 2v61l1 32l-2 50l2 54zM0 115l2 51v21v22l190 23l1 26l-1 29l102 1l234 3l1 -15l3 -40l-1 -46l-199 -22l4 -15l-1 -75h18l1 30l1 48l98 3l233 -2l4 -45l-2 -56l3 -51v-64v-81v-24l-5 -39h-41
l-99 -3h-114l-203 -2l-79 1l-79 -3l-14 60l-52 4l-1 73l-1 38l-1 95c-1 23 -2 55 -2 55z" />
    <glyph glyph-name="exclamdown" unicode="&#xa1;" horiz-adv-x="354" 
d="M339 282l3 -56l-3 -245l3 -145l-7 -48l-83 -3l-89 2l-93 1l-27 1l-41 6v40l-2 54l1 9l2 44v111l2 79l-3 148l103 3zM0 357l3 25l-1 117l103 5l234 -4l2 -54l-2 -50l1 -33v-61l-88 -3l-89 2l-93 1l-27 1l-40 6z" />
    <glyph glyph-name="comma" unicode="," horiz-adv-x="277" 
d="M181 -89l1 17l-3 36l-1 29h-13l-53 -3l-54 1h-38l-19 2v134l-1 45v5v15v51l44 1h24h11l89 4l13 2l44 -2l38 -1l2 -135l-1 -44l1 -23l-1 -20l1 -70v-45h-11l-20 -1h-17l-24 1z" />
    <glyph glyph-name="semicolon" unicode=";" horiz-adv-x="281" 
d="M185 -89l1 11l-3 42l-1 29h-13l-53 -3l-54 1h-38l-19 2l-1 134l-1 45l1 5l-1 15v51l44 1h24h11l89 4l13 2l44 -2l38 -1l2 -135v-44l1 -23l-1 -20l1 -70v-45h-11l-20 -1h-17l-24 1zM1 462l-1 35l4 19l62 -1l30 -1l53 4l57 -1h37l20 -3l1 -134v-44v-5v-15v-52h-44l-24 -1
l-11 1l-89 -5l-39 1l-38 2l-14 2v58l-1 5l-1 68l-1 44z" />
    <glyph glyph-name="period" unicode="." horiz-adv-x="276" 
d="M5 -3v54l-1 9l-1 68l-1 44v22l-2 35l1 5l3 14l64 -1h30l53 3l54 -1l28 1l11 -1l15 -2h4v-135v-44v-5l1 -15v-51l-45 -1h-24h-11l-89 -4h-39l-38 2z" />
    <glyph glyph-name="colon" unicode=":" horiz-adv-x="279" 
d="M266 32l1 -21l-1 -5l-3 -14l-64 1h-30l-53 -3l-54 1h-37l-17 2v0h-3v134l-1 45l1 5l-1 15v51l44 1h24h11l89 4h39l37 -2l15 -3v-54l1 -8v-95l1 -17l1 -21v-12v-4zM3 264l2 55v3c0 3 -1 5 -1 5v1v67h-2v44l-1 23l-1 35h1l-1 3l1 1l3 15l64 -1l30 -1l53 4l54 -1h37h1l16 -3
h3l1 -134h2l-1 -44l-1 -5l1 -15l-2 -52h-44l-25 -1l-10 1l-89 -5l-39 1l-37 1l-1 1z" />
    <glyph glyph-name="plus" unicode="+" horiz-adv-x="581" 
d="M568 382v-21l-1 -8l-1 -34l-56 -3l-45 1l-69 1l-68 1h-4v-64l1 -130l-1 -29l-1 -18l-10 1l-10 -1h-9l-10 -1l-18 1l-27 -1l-1 11v13l1 46l-1 48v55l-1 55v14l-59 -1h-112l-48 1l-16 3l-1 9v5v5v8l-1 10v18l1 28h10l13 1l48 -1l46 -1l55 2l55 1h10v2l1 103s-1 10 -1 24
c0 6 0 13 1 20v49v27v12h11l25 -1l8 1h9h12l22 -1v-57l-2 -44l1 -69l-1 -67h8l103 -1c3 0 22 1 45 1h5h56h16h12z" />
    <glyph glyph-name="equal" unicode="=" horiz-adv-x="520" 
d="M1 462l-1 18v43l10 1l12 1l87 1l101 2l174 -1s70 0 111 2h11v-36l-1 -17l-1 -33l-93 -3l-109 2l-277 -3l-23 5zM4 186l-1 36v17l2 33l93 3l126 -2l258 3h25l1 -23v-18v-44h-10l-12 -1l-87 -3h-83l-191 1s-69 0 -110 -2h-11z" />
    <glyph glyph-name="multiply" unicode="&#xd7;" horiz-adv-x="479" 
d="M345 408l-50 -47l-2 -2l45 -46l106 -108l2 -6l14 -13l-6 -7l-4 -4h-4l-5 -12l-1 -1l-6 -4l-11 -11l-19 -21l-8 7l-5 5l-5 4l-34 35l-34 33l-38 39l-39 38l-10 10l-42 -42l-60 -58l-38 -34l-29 -30l-8 8l-3 4l-17 15l-11 12l-23 20l10 9l5 4l7 3l30 34l34 34l39 40l38 33
l9 9l-2 6l-74 73s-12 14 -29 32s-37 39 -53 54l-9 9l9 8l9 8l10 7l4 7l7 7l8 8l19 17l37 -46l30 -35l49 -47l45 -46l6 6l74 71s14 16 32 33c18 18 39 38 54 54l8 8l8 -8l8 -11l9 -7l8 -6l5 -7l8 -9l15 -16l-40 -40l-36 -30z" />
    <glyph glyph-name="divide" unicode="&#xf7;" horiz-adv-x="549" 
d="M536 369l1 37l-12 -1l-87 -1h-18l-208 3l-110 -1l-78 -1l-13 -1h-11v-45v-21l1 -10v-8l26 -5l285 4l136 -3l86 2l1 34zM187 141l-9 1l1 35c0 3 -1 5 -1 5v59l-1 32v17l2 10l37 -1h31l36 1h34h24l9 -2l-1 -34v-33v-17v-6v-5l2 -28l3 -32h-30h-16h-9l-54 -3l-34 1h-24z
M271 231h-18v-17l1 -5h18zM348 583l1 -35v-1v-3l1 -1v-59l1 -31l2 -19l-2 -8l-39 1h-31l-36 -2h-34h-24l-9 2l1 35l1 32l-1 17v6v11l-2 22l-1 32h28l16 1l9 -1l54 3h34h22zM257 494h18v17l-1 6h-18z" />
    <glyph glyph-name="minus" unicode="&#x2212;" horiz-adv-x="488" 
d="M476 361v-9v-15l-5 -18l-45 -1h-38l-57 3l-57 -1l-114 -2l-116 -1l-17 2l-26 4v9v6v14l-1 9l1 17v26l9 1l11 1h40h39l45 -1l46 1l87 -2l86 -2s16 1 37 1c20 0 46 1 64 1l11 1v-11l-1 -13v-11z" />
    <glyph glyph-name="hyphen" unicode="-" horiz-adv-x="427" 
d="M415 361v-9v-15l-5 -18l-45 -1h-38l-57 1l-19 1l-91 -2l-116 -1l-17 2l-26 4v9v6v14l-1 9l1 17v26l9 1l11 1h40h39h45h46l64 -2l48 -2s16 1 37 1c20 0 46 1 64 1l11 1v-11l-1 -13v-11z" />
    <glyph glyph-name="endash" unicode="&#x2013;" horiz-adv-x="488" 
d="M476 361v-9v-15l-5 -18l-45 -1h-38l-57 3l-57 -1l-114 -2l-116 -1l-17 2l-26 4v9v6v14l-1 9l1 17v26l9 1l11 1h40l74 -3l10 3h46l87 -2l86 -2s16 1 37 1c20 0 46 1 64 1l11 1v-11l-1 -13v-11z" />
    <glyph glyph-name="emdash" unicode="&#x2014;" horiz-adv-x="495" 
d="M4 223l-4 30v20v67v66l3 60l35 4l228 -5l152 1l64 -5v-171l1 -69l-73 -2h-74l-146 2c-35 -1 -84 -1 -84 -1l-72 2z" />
    <glyph glyph-name="asterisk" unicode="*" horiz-adv-x="418" 
d="M156 401v1l-26 -24l-19 -21l-22 -19l-16 15l-4 5l-9 8l-8 8l-23 24l17 19l10 12l16 14l21 21c-5 0 -12 0 -19 1h-38h-11l-25 -1l1 26v8v7v5v8v7l2 32l55 -4l30 -2h9c-4 4 -9 10 -16 17c-11 12 -24 26 -34 35l-19 18l19 17l11 11l3 3l5 5l6 6l23 21l37 -40l20 -25l6 -5v23
v7v43l-1 25h26l8 -1h15l6 -1h6l30 -1v-52l1 -31v-9c3 3 8 8 13 14c12 11 26 25 36 35l17 19l17 -19l6 -6l4 -4l6 -4l2 -4l7 -9l19 -21l-36 -37l-21 -22l-6 -6h6l53 -3h5l27 -3v-21v-6v-6v-5l1 -12l1 -34l-23 -1l-5 -1h-4l-33 1h-31h-2l21 -23l26 -24l18 -21l-16 -16l-11 -12
l-8 -8l-23 -26l-18 16l-7 6l-22 23l-21 22l1 -55l-1 -2l-1 -9l-1 -26h-23h-6h-7h-7h-11h-34l-1 23v4v4v32v31z" />
    <glyph glyph-name="fraction" unicode="&#x2044;" horiz-adv-x="579" 
d="M252 792l173 4l142 -4l-48 -226l-44 -216l-13 -73l-54 -264l-12 -44l-10 -54l-81 -1l-84 -2l-115 2l-69 2l-23 1l-14 -1l3 14l16 75l6 42l42 203l42 204l25 111l25 111l9 49l6 28l5 28l3 14h9h16z" />
    <glyph glyph-name="percent" unicode="%" horiz-adv-x="422" 
d="M235 -6l1 35l-1 5l2 266l-63 -292l-20 -99l-30 3l-15 -1l-23 1h-14l3 13c11 45 30 118 30 117l47 236l-19 1h-30l-36 -1h-34l-24 1l-9 1l1 63l1 33l1 25l-1 273v32h27h17l8 -1l54 3l34 -1h22l9 -2l1 -35l-1 -6l2 -7l-2 -272l12 63l48 222l23 98l6 21h40l41 -2l-80 -366
c8 0 15 1 15 1l65 3l34 -1h24l9 -1l-1 -35l-1 -32l-2 -284l1 -7l1 -7l-1 -7l1 -25l2 -32h-29h-17h-8l-54 -2l-34 1h-24zM311 66v-6h20l-1 294v2h-17zM97 393l-1 246h-17l1 -264h17v18z" />
    <glyph glyph-name="perthousand" unicode="&#x2030;" horiz-adv-x="615" 
d="M235 -5l1 35l-1 5l2 266l-63 -292l-20 -99l-30 3l-15 -1l-23 1h-14l3 13c11 45 30 118 30 117l47 236l-19 1h-30l-36 -1h-34l-24 1l-9 1l1 63l1 33l1 25l-1 273v32h27h17l8 -1l54 3l34 -1h22l9 -2l1 -35l-1 -6l2 -7l-2 -272l12 63l48 222l23 98l6 21h40l41 -2l-80 -366
c8 0 15 1 15 1l65 3l34 -1h24l9 -1l-1 -35l-1 -32l-2 -284l1 -7l1 -7l-1 -7l1 -25l2 -32h-29h-17h-8l-54 -2l-34 1h-24zM311 67v-6h20l-1 294v2h-17zM97 394l-1 246h-17l1 -264h17v18zM601 26l2 -32h-29h-17h-8l-54 -2l-34 1h-24l-9 1l1 35l-1 6l2 265l2 119l104 6l34 -1h24
l9 -1l-1 -35l-1 -32l-2 -284l1 -7l1 -7l-1 -7zM504 60h20l-1 294v2h-17l-3 -290z" />
    <glyph glyph-name="guillemotleft" unicode="&#xab;" horiz-adv-x="388" 
d="M270 -3l-13 22l-32 68l-57 123l-13 31l-25 51l33 61l48 92l19 36l45 91h7l18 1l26 1l50 1l-34 -70l-13 -26l-46 -84l-11 -28l-30 -64l-7 -11l22 -48l19 -36l2 -12l34 -62l44 -94l19 -45h-20l-12 1l-25 1h-48zM53 183l-6 13l-47 97l40 74l31 61l15 22l20 47l40 77l20 1
l12 1l25 -1l46 -1l-16 -33l-31 -61l-15 -24l-18 -43l-62 -120l6 -12l27 -57l12 -22l7 -23l25 -51l60 -130l-44 -1l-23 -2l-37 2l-3 7c-10 23 -20 46 -28 63l-2 11l-17 24z" />
    <glyph glyph-name="less" unicode="&#x3c;" horiz-adv-x="318" 
d="M174 384l-6 -6l-21 -36l-40 -53l11 -16l34 -52l8 -19l57 -76l83 -130h-18h-8l-31 -1h-20l-7 1h-20l-42 60l-40 60l-55 83l-13 26l-11 12l-35 57l15 20l9 14l14 15l15 26l24 28l54 74l39 59l38 47h5h16l25 -1l20 2l32 -2l-61 -90z" />
    <glyph glyph-name="guilsinglleft" unicode="&#x2039;" horiz-adv-x="318" 
d="M175 384l-30 -42l-38 -53l11 -16l34 -52l33 -50l32 -44l83 -131h-18h-8l-31 -1h-20l-7 1h-20l-42 60l-95 143l-59 95l15 20l9 14l14 15l19 26l20 28l54 74l39 59l38 47h5h16h25l20 1l32 -2l-61 -90z" />
    <glyph glyph-name="asciitilde" unicode="~" horiz-adv-x="488" 
d="M37 300l-36 -15l-1 35l2 70l57 22l94 39l63 -28l41 -21l22 -12l14 -7l20 -10l11 -5l80 31l42 22l29 12l1 -84l-1 -21l-58 -24s-29 -14 -91 -34l-73 34l-37 19l-63 31l-62 -30z" />
    <glyph glyph-name="greater" unicode="&#x3e;" horiz-adv-x="318" 
d="M306 294l-44 -70l-13 -16l-2 -9l-72 -107l-24 -36l-41 -60l-5 -1l-22 -1l-21 1l-30 1h-26l85 131l30 44l13 14l23 36l31 52l10 16l-37 53l-30 42l-52 75l-18 27l-26 39l-35 51l17 1l16 1l19 -2l25 1h21l33 -47l44 -59l54 -74l20 -28l17 -29l16 -13l9 -12z" />
    <glyph glyph-name="guilsinglright" unicode="&#x203a;" horiz-adv-x="318" 
d="M306 294l-59 -95l-96 -143l-41 -60l-5 -1h-22h-21l-30 1h-26l85 131l30 44l36 50l31 52l10 16l-37 53l-30 42l-70 102l-61 90l17 1l16 1l19 -1h25h21l33 -47l44 -59l54 -74l20 -28l18 -26l15 -16l9 -12z" />
    <glyph glyph-name="guillemotright" unicode="&#xbb;" horiz-adv-x="388" 
d="M98 201l1 7l20 36l22 48l-7 12l-33 64l-11 27l-56 110l-34 70l10 -3l66 1l25 -1l44 -90l21 -37l47 -92l33 -61l-25 -50l-13 -32l-57 -123l-33 -69l-12 -21l-48 -1h-25l-32 -1l19 45l44 94zM199 -5l-23 2l-44 1l60 130l24 51l10 23l12 22l26 58l5 11l-63 120l-21 43
l-11 24l-31 61l-16 33l46 1l10 -1l27 1l20 -1l42 -78l22 -46l11 -22l31 -60l40 -75l-46 -97l-10 -14l-35 -80l-46 -98l-3 -7z" />
    <glyph glyph-name="periodcentered" unicode="&#xb7;" horiz-adv-x="276" 
d="M3 238v54v3c-1 3 0 6 0 6l-1 68l-1 44v23l-1 34v1v2l3 17l64 -2h30l53 3l55 -1l37 1l17 -3h3l2 -134l-1 -44l-1 -5v-16v-51l-45 -1h-24h-11l-88 -4l-39 1l-38 1z" />
    <glyph glyph-name="degree" unicode="&#xb0;" horiz-adv-x="185" 
d="M1 346l2 64l-2 32v26l-1 206v32h27h17h8l55 2l34 -1h22l9 -2v-35l-1 -6c1 -3 2 -7 2 -7l-2 -255l1 -31l1 -18l-2 -9l-39 1h-31l-36 -1l-34 1h-20zM77 640l1 -198l18 -1v18l-2 180z" />
    <glyph glyph-name="quoteright" unicode="&#x2019;" horiz-adv-x="279" 
d="M156 452l-42 -2h-55h-39l-17 3h-3l1 134l-1 44l1 5l-1 15v52l45 1h24l11 -1l89 5h12v1l44 -1l39 -2l2 -134v-44v-24l-1 -20l2 -70v-45h-12h-19l-17 -1l-25 2h-11v12l1 5l-3 36l-1 29h-24z" />
    <glyph glyph-name="quoteleft" unicode="&#x2018;" horiz-adv-x="279" 
d="M111 625l42 2h55h39l17 -3h3l-1 -134l1 -44l-1 -5l1 -15v-52l-45 -1h-24l-11 1l-89 -5h-12v-1l-44 1l-39 2l-2 134v44v24l1 20l-2 70v45h12h19l17 1l25 -2h11v-12l-1 -5l3 -36l1 -29h24z" />
    <glyph glyph-name="quotesingle" unicode="'" horiz-adv-x="239" 
d="M10 452l-9 30v55l3 52l-3 44l1 24l2 10l-1 39l39 2l43 1h41h13h8l20 -2l32 -2l5 2l17 -1l3 -134l-1 -44l3 -26l1 -20l-53 -154l-8 -1h-20h-17l-21 1l-13 -1h-17l-28 1z" />
    <glyph glyph-name="quotedblright" unicode="&#x201d;" horiz-adv-x="399" 
d="M100 370v12v6l-3 35v29h-35h-3h-28h-9h-5l-2 1l-13 -1l-1 137l-1 62v56l38 2l6 -1h51l4 1l43 -1l39 -2v-150l2 -28v-24l-1 -20l1 -70l1 -45h-12h-19l-17 -1l-25 2h-11zM304 370v12v6l-3 36l-1 30l-37 -2h-28h-10h-4l-4 1l-12 -1v137l-2 62l1 57l38 1l6 -1l52 1h2l44 -1
l40 1l1 -153l-1 -28l1 -24l-1 -20l1 -70v-45h-11h-20l-17 -1l-24 2h-11z" />
    <glyph glyph-name="quotedblbase" unicode="&#x201e;" horiz-adv-x="399" 
d="M303 -86l1 11v6l-2 35l-2 30h-35l-3 -1h-28h-9h-5l-2 1h-13l-1 136l-1 62l1 57l38 1l6 -1l50 1l21 1l27 -2l39 -1l-2 -151l2 -28l1 -24l-1 -20l2 -70v-44l-11 -1h-20h-17l-25 1zM99 -87v12v6l-1 36l-1 30l-38 -2h-28h-10h-4l-3 1h-12l-1 136l-1 62l1 57l37 1l7 1h51h3
l43 -2l40 1l-1 -153l2 -28v-24l-1 -20l1 -70v-45h-11h-20h-17l-25 1h-11z" />
    <glyph glyph-name="quotesinglbase" unicode="&#x201a;" horiz-adv-x="195" 
d="M99 -87v12v6l-1 36l-1 30l-38 -2h-28h-10h-4l-3 1h-12l-1 136l-1 62l1 57l37 1l7 1h51h3l43 -2l40 1l-1 -153l2 -28v-24l-1 -20l1 -70v-45h-11h-20h-17l-25 1h-11z" />
    <glyph glyph-name="quotedblleft" unicode="&#x201c;" horiz-adv-x="399" 
d="M287 707v-12v-6l3 -35v-29h35h3h28h9h5l2 -1l13 1l1 -137l1 -62v-56l-38 -2l-6 1h-51l-4 -1l-43 1l-39 2v150l-2 28v24l1 20l-1 70l-1 45h12h19l17 1l25 -2h11zM83 707v-12v-6l3 -36l1 -30l37 2h28h10h4l4 -1l12 1v-137l2 -62l-1 -57l-38 -1l-6 1l-52 -1h-2l-44 1l-40 -1
l-1 153l1 28l-1 24l1 20l-1 70v45h11h20l17 1l24 -2h11z" />
    <glyph glyph-name="ordmasculine" unicode="&#xba;" horiz-adv-x="336" 
d="M3 460l-1 11l-2 84l1 54l1 28l-1 43l1 3l4 20l78 -1l37 -1l66 4l67 -1l45 1l21 -4h4l-3 -165l1 -54l-1 -6l2 -19l-1 -64l-54 -1h-30h-13l-110 -5l-48 1l-47 2l-17 3v67zM135 565l1 -31l1 -9h33l-3 41z" />
    <glyph glyph-name="underscore" unicode="_" horiz-adv-x="702" 
d="M689 1l1 -35v-18l-2 -32l-85 -2l-330 4l-251 1l-22 5v8v9v18v43l9 1l11 1h79h91l390 -4h45c18 0 38 0 54 1h10z" />
    <glyph glyph-name="plusminus" unicode="&#xb1;" horiz-adv-x="724" 
d="M711 694l1 -39l-3 -94v-3c0 -1 2 -33 2 -68c0 -12 0 -25 -1 -37l-1 -181l-6 -96l5 -48l-1 -6l-3 -10l3 -77l-3 -45l-257 -2v0l-46 2h-206l-82 1l-110 5l-1 38l-2 86v13s1 61 4 103v182l6 96v54l-3 89l21 42l241 2l92 -4l158 2l85 -1z" />
    <glyph glyph-name="lessequal" unicode="&#x2264;" horiz-adv-x="1055" 
d="M1042 561l1 -3l-5 -104l-1 -182l-6 -96v-54l2 -35l2 -78l-9 -19l-252 -2l-284 5l-297 -3l-82 1l-110 4l-1 39l4 94v4s-3 33 -3 67c0 13 0 26 1 37l2 182l5 95l-5 49l4 15l-2 78l2 44l258 2l285 -1l296 -1l85 -1l107 -4l1 -38z" />
    <glyph glyph-name="greaterequal" unicode="&#x2265;" horiz-adv-x="1504" 
d="M1491 698l1 -38l-4 -95l1 -3c0 -1 2 -33 2 -67c0 -13 0 -26 -1 -37l-2 -182l-5 -95l3 -49v-2l-2 -14l3 -77l-3 -44l-258 -1l-365 1c-1 0 -75 1 -84 1l-59 -2h-23l-248 -2l-251 3h-82l-110 5l-1 38l-3 81l1 18l4 103v182l3 96l-3 55l-1 88l5 42l20 -2l241 5l92 -5l158 2
h85l93 -4l63 4l288 3l92 -5l158 2h84z" />
    <glyph glyph-name="quotedbl" unicode="&#x22;" horiz-adv-x="336" 
d="M9 449l-9 30l3 55l-1 52l-1 44l2 24l1 10l1 39l33 2h30l33 1l33 -2l15 -1l2 -134l1 -44v-26l1 -20l-44 -154l-7 -1h-20l-37 1zM179 449l-6 30v55l-1 52l-1 44l1 24v10l-1 39l37 2l28 1h35l33 -2l15 -1l3 -134v-44l1 -26l1 -20l-45 -154l-7 -1h-19l-38 1z" />
    <glyph glyph-name="asciicircum" unicode="^" horiz-adv-x="365" 
d="M323 660l12 -6l18 -7v-80l-54 17l-40 14l-43 19l-41 15l-44 -14l-49 -20l-23 -8l-22 -8l-11 -4l-26 -5v78l24 8l17 8l11 5l12 6l87 34l24 8l33 -11l29 -11l32 -15l31 -15l11 -4z" />
    <glyph glyph-name="ellipsis" unicode="&#x2026;" horiz-adv-x="845" 
d="M550 35l1 -21l-1 -5l-3 -14l-64 1h-30l-53 -3l-54 1h-38l-16 2h-3l-3 135l1 44l1 5l-1 15v52h45l24 1l11 -1l89 4h39l37 -2l14 -3v-54l1 -8v-95l2 -17v-21l1 -12v-4zM5 0v54l-1 9l-4 68l2 44v22l-2 35l1 5l3 15l64 -2h30l53 3l54 -1l28 1l10 -1l16 -2h3l-2 -134l3 -44v-6
l1 -15v-51l-45 -1h-24h-11l-89 -4h-39l-38 2zM574 0v54l-1 9l-4 68l2 44v22l-2 35l1 5l3 15l64 -2h30l53 3l54 -1l28 1l10 -1l16 -2h3l-2 -134l4 -44l-1 -6l1 -15v-51l-45 -1h-24h-11l-89 -4h-39l-38 2z" />
    <glyph glyph-name="caron" unicode="&#x2c7;" horiz-adv-x="365" 
d="M30 782l-12 6l-18 7v80l54 -17l40 -14l43 -19l41 -15l44 14l49 20l23 8l22 8l11 4l26 5v-78l-24 -8l-17 -8l-11 -5l-12 -6l-87 -34l-24 -8l-33 11l-29 11l-32 15l-31 15l-11 4z" />
    <glyph glyph-name="bullet" unicode="&#x2022;" horiz-adv-x="416" 
d="M28 250l-25 64l-3 29v8v7v4v8v8l7 53l21 42l18 18l12 10l3 3l4 5l7 6l23 21l47 23l40 5h8l15 -1h6h6l56 -11l41 -15l18 -18l5 -6l8 -6l2 -3l2 -3l7 -9l27 -35l20 -57v-21v-7l1 -5v-6v-11l-12 -65l-20 -39l-16 -15l-11 -13l-8 -8l-24 -20l-53 -23l-39 -7l-6 -1h-6h-8h-11
l-31 5l-62 23l-24 19l-5 5l-9 8l-8 8z" />
    <glyph glyph-name="dotaccent" unicode="&#x2d9;" horiz-adv-x="189" 
d="M2 747l-1 6l-1 60v30v19l2 8l39 -1h31l36 2h34h23l10 -2l-1 -35v-32v-17v-6v-11l1 -22l2 -32h-29l-17 -1l-8 1l-55 -3l-34 1l-23 -1v1l-9 1v34z" />
    <glyph glyph-name="Adieresis" unicode="&#xc4;" 
d="M2 254l1 202l2 80l-3 79l44 9l20 83l78 -3l81 5l202 -2c46 0 114 1 115 1l98 -3l41 -1l15 -2l3 -116l-6 -233l2 -310l-6 -47l-66 -6l-106 5h-93s-12 1 -20 1l-48 6l-1 40l-1 97s1 61 2 107h-16l2 -202l-7 -48l-83 -2l-89 2l-93 -3l-27 1l-41 6v40l-2 100s1 67 2 114z
M341 407l-2 -53v-11h17v64h-15zM344 753l-1 -22l-2 -11l-39 1h-27l-35 -1h-34h-24l-11 2l-1 84l-1 6v21l-1 12l-2 32h29h15h9l54 3l34 -1h24l9 -1l-1 -35c0 -3 1 -5 1 -6l2 -43l2 -6v-20v-15zM530 838l1 -60v-31v-17l-2 -10l-39 1l-28 1l-36 -2h-32h-24l-9 2h-2l-1 84l-1 25
l-1 14v32h28h15h8l54 3l34 -1h24l9 -1l1 -35z" />
    <glyph glyph-name="Aring" unicode="&#xc5;" 
d="M2 254l1 202l2 80l-3 79l44 9l20 83l78 -3l81 5l202 -2c46 0 114 1 115 1l98 -3l41 -1l15 -2l3 -116l-6 -233l2 -310l-6 -47l-66 -6l-106 5h-93s-12 1 -20 1l-48 6l-1 40l-1 97s1 61 2 107h-16l2 -202l-7 -48l-83 -2l-89 2l-93 -3l-27 1l-41 6v40l-2 100s1 67 2 114z
M341 407l-2 -53v-11h17v64h-15zM264 756l-1 6l-4 60l1 30v19l1 8l40 -1h30l36 2h34h23l10 -2l-1 -35v-32v-17v-6l1 -11l2 -22l2 -32h-29l-17 -1l-8 1l-55 -3l-34 1l-23 -1v1l-9 1zM338 811v-17v-6l19 1l-2 22h-17z" />
    <glyph glyph-name="Eacute" unicode="&#xc9;" horiz-adv-x="728" 
d="M2 254l1 202l2 80l-3 79l56 11l18 81l79 -3l80 3l202 -2c47 1 115 1 115 1l93 -3h71v-12l-1 -10l-14 -58l-5 -31l-17 -80l-23 -104l-6 -2l-10 -4l-299 6l-1 -17l205 -2s60 -3 104 -3h17h12l-2 -36v-16l-2 -33l-101 2l-137 3h-96v-18l97 -1c47 1 115 1 115 1l99 -3l40 -1
l6 -39v-21v-81v-77l-4 -73l-48 -5l-313 6h-18l-62 -2l-40 1l-113 -1l-38 3h-7v-1l-30 3l-13 1l1 1l-10 1v40l-2 100s1 67 2 114zM548 835l-2 -15v-46l-102 -16l-142 -26l-102 -16v37l1 38l8 3l13 3l101 23l113 26l15 5s37 7 83 19l13 3z" />
    <glyph glyph-name="Ntilde" unicode="&#xd1;" horiz-adv-x="766" 
d="M5 360l-5 234l3 31l-1 36l1 44h302l28 2l65 1l2 -33v-17l1 -29l5 -89l8 -109l16 -234l-1 47v202c-2 47 -3 115 -3 115l2 99v40l41 6h27l93 2l72 -2l85 -3l5 -48l-3 -312l6 -234l-2 -26l1 -36l-1 -45h-10l-52 -4h-240l-54 -1h-10l-25 2l-6 92l-15 235l-14 187l1 -50
l1 -202c1 -47 2 -115 2 -115l-2 -99v-40l-41 -6l-27 -1l-77 -1l-90 -2l-83 3l-6 48zM498 831l29 12l34 12l1 -72l-1 -22l-45 -19s-21 -9 -63 -24l-4 -1l-54 26l-24 13l-38 18l-36 -16l-37 -19l-40 -17l-1 41l1 58l46 19s21 10 64 24l4 2l47 -24l28 -12l15 -8l26 -10z" />
    <glyph glyph-name="Odieresis" unicode="&#xd6;" 
d="M3 467l-1 -202c-1 -47 -2 -114 -2 -114l2 -111v-40l22 -3l75 -7l113 1h40l62 2h18l274 -4l39 -1l48 5l4 72v78v81v20v1l-4 26v82l2 101l2 26v24l2 82l-2 79l-1 34l-5 2l-40 1l-99 3s-68 -1 -115 -1l-99 1h-49l-54 1l-80 -2l-75 -4l-78 -1l3 -125zM339 365l1 43l16 -1
v-119h-16zM344 750l-1 -22l-2 -11l-39 1h-27l-35 -1h-34h-24l-11 2l-1 84l-1 6v21l-1 12l-2 32h29h15h9l54 3l34 -1h24l9 -1l-1 -35c0 -3 1 -5 1 -6l2 -43l2 -6v-20v-15zM530 835l1 -60v-31v-17l-2 -10l-39 1l-28 1l-36 -2h-32h-24l-9 2h-2l-1 84l-1 25l-1 14v32h28h15h8
l54 3l34 -1h24l9 -1l1 -35z" />
    <glyph glyph-name="Udieresis" unicode="&#xdc;" 
d="M2 267l1 202l2 106l-3 129l147 6l189 -1l7 -82l-6 -261l1 -76l16 -1v179l2 106l-3 132h157l180 2l7 -82l-6 -261v-94l4 -24v-1v-21l-1 -81l1 -73l-2 -25l-2 -48l-48 -5l-219 4h-17l-77 2h-18l-62 -2l-40 1l-113 -2l-27 3l-48 -1l-12 2l-10 1v41l-2 110s1 68 2 115z
M345 753l-1 -22l-2 -11l-39 1h-27l-35 -1h-34h-24l-11 2l-1 84l-1 6v21l-1 12l-2 32h29h15h9l54 3l34 -1h24l9 -1l-1 -35c0 -3 1 -5 1 -6l2 -43l2 -6v-20v-15zM531 838l1 -60v-31v-17l-2 -10l-39 1l-28 1l-36 -2h-32h-24l-9 2h-2l-1 84l-1 25l-1 14v32h28h15h8l54 3l34 -1
h24l9 -1l1 -35z" />
    <glyph glyph-name="aacute" unicode="&#xe1;" horiz-adv-x="710" 
d="M698 588l-3 115l-15 1v1l-40 1l-99 2h-115l-202 2l-80 -4l-79 3l-20 -88l-45 -206l87 -7l234 2h13l-40 -15l-137 -46l-144 -51l2 -12l-7 -103l-3 -183l93 -4l234 2l273 -5l18 -1h4h17l48 5l4 73v78l1 78s0 12 -1 19h1l-4 28l-1 82zM356 335v-45l-121 2h-3zM551 838
l-2 -15v-46l-102 -16l-142 -26l-102 -16v37l1 38l8 3l13 3l101 23l113 26l15 5s37 7 83 19l13 3z" />
    <glyph glyph-name="agrave" unicode="&#xe0;" horiz-adv-x="710" 
d="M698 588l-3 115l-15 1v1l-40 1l-99 2h-115l-202 2l-80 -4l-79 3l-20 -88l-45 -206l87 -7l234 2h13l-40 -15l-137 -46l-144 -51l2 -12l-7 -103l-3 -183l93 -4l234 2l273 -5l18 -1h4h17l48 5l4 73v78l1 78s0 12 -1 19h1l-4 28l-1 82zM356 335v-45l-121 2h-3zM297 760
l-103 16l1 46l-3 15l1 24v14l13 -3l117 -26l94 -24l101 -23l21 -6l2 -38l-1 -37l-102 16z" />
    <glyph glyph-name="acircumflex" unicode="&#xe2;" horiz-adv-x="710" 
d="M698 588l-3 115l-15 1v1l-40 1l-99 2h-115l-202 2l-80 -4l-79 3l-20 -88l-45 -206l87 -7l234 2h13l-40 -15l-137 -46l-144 -51l2 -12l-7 -103l-3 -183l93 -4l234 2l273 -5l18 -1h4h17l48 5l4 73v78l1 78s0 12 -1 19h1l-4 28l-1 82zM356 335v-45l-121 2h-3zM512 813l12 -6
l18 -7v-80l-54 17l-40 14l-43 19l-41 15l-44 -14l-49 -20l-23 -8l-22 -8l-11 -4l-26 -5v78l24 8l17 8l11 5l12 6l87 34l24 8l33 -11l29 -11l32 -15l31 -15l11 -4z" />
    <glyph glyph-name="adieresis" unicode="&#xe4;" horiz-adv-x="710" 
d="M698 588l-3 115l-15 1v1l-40 1l-99 2h-115l-202 2l-80 -4l-79 3l-20 -88l-45 -206l87 -7l234 2h13l-40 -15l-137 -46l-144 -51l2 -12l-7 -103l-3 -183l93 -4l234 2l273 -5l18 -1h4h17l48 5l4 73v78l1 78s0 12 -1 19h1l-4 28l-1 82zM356 335v-45l-121 2h-3zM381 753
l-1 -22l-2 -11l-39 1h-27l-35 -1h-34h-24l-11 2l-1 84l-1 6v21l-1 12l-2 32h29h15h9l54 3l34 -1h24l9 -1l-1 -35c0 -3 1 -5 1 -6l2 -43l2 -6v-20v-15zM567 838l1 -60v-31v-17l-2 -10l-39 1l-28 1l-36 -2h-32h-24l-9 2h-2l-1 84l-1 25l-1 14v32h28h15h8l54 3l34 -1h24l9 -1
l1 -35z" />
    <glyph glyph-name="atilde" unicode="&#xe3;" horiz-adv-x="710" 
d="M698 588l-3 115l-15 1v1l-40 1l-99 2h-115l-202 2l-80 -4l-79 3l-20 -88l-45 -206l87 -7l234 2h13l-40 -15l-137 -46l-144 -51l2 -12l-7 -103l-3 -183l93 -4l234 2l273 -5l18 -1h4h17l48 5l4 73v78l1 78s0 12 -1 19h1l-4 28l-1 82zM356 335v-45l-121 2h-3zM499 837l29 12
l34 12l1 -72l-1 -22l-45 -19s-21 -9 -63 -24l-4 -1l-54 26l-24 13l-38 18l-36 -16l-37 -19l-40 -17l-1 41l1 58l46 19s21 10 64 24l4 2l47 -24l28 -12l15 -8l26 -10z" />
    <glyph glyph-name="aring" unicode="&#xe5;" horiz-adv-x="710" 
d="M698 588l-6 -233l1 -82l4 -28h-1c1 -7 1 -19 1 -19l-1 -78v-78l-4 -73l-48 -5h-17h-4l-18 1l-273 5l-234 -2l-93 4l3 183l7 103l-2 12l144 51l137 46l40 15h-13l-234 -2l-87 7l45 206l20 88l79 -3l80 4l202 -2h115l99 -2l40 -1v-1l15 -1zM356 335l-124 -43h3l121 -2v45z
M291 756l-1 6l-4 60l1 30v19l1 8l40 -1h30l36 2h34h23l10 -2l-1 -35v-32v-17v-6l1 -11l2 -22l2 -32h-29l-17 -1l-8 1l-55 -3l-34 1l-23 -1v1l-9 1zM365 811v-17v-6l19 1l-2 22h-17z" />
    <glyph glyph-name="eacute" unicode="&#xe9;" horiz-adv-x="736" 
d="M3 456l-1 -202c-1 -47 -2 -114 -2 -114l2 -100v-40l10 -1l10 -2l28 -3h12l37 -1l111 3l42 -1l65 2h15l248 -3l137 1l-2 40v37v134l3 38v44h-38l-128 3s-68 0 -115 -1l-47 1l38 14l137 46l103 34l4 31l15 72l11 69l11 66l7 34l8 43l-44 4l-99 3s-99 0 -146 -1l-200 -1h-80
h-79l-18 -80l-56 -10l3 -79zM339 357l1 41l132 4l-133 -46v1zM548 835l-2 -15v-46l-102 -16l-142 -26l-102 -16v37l1 38l8 3l13 3l101 23l113 26l15 5s37 7 83 19l13 3z" />
    <glyph glyph-name="egrave" unicode="&#xe8;" horiz-adv-x="736" 
d="M3 456l-1 -202c-1 -47 -2 -114 -2 -114l2 -100v-40l10 -1l10 -2l28 -3h12l37 -1l111 3l42 -1l65 2h15l248 -3l138 1l-2 40v37v134l3 38v44h-38l-129 3s-68 0 -115 -1l-47 1l38 14l137 46l103 34l4 31l15 72l11 69l11 66l7 34l8 43l-44 4l-99 3s-99 0 -146 -1l-200 -1h-80
h-79l-18 -80l-56 -10l3 -79zM339 357l1 41l132 4l-133 -46v1zM294 758l-103 16l1 46l-3 15l1 24v14l13 -3l117 -26l94 -24l101 -23l21 -6l2 -38l-1 -37l-102 16z" />
    <glyph glyph-name="ecircumflex" unicode="&#xea;" horiz-adv-x="736" 
d="M3 456l-1 -202c-1 -47 -2 -114 -2 -114l2 -100v-40l10 -1l10 -2l28 -3h12l37 -1l111 3l42 -1l65 2h15l248 -3l137 1l-2 40v37v134l3 38v44h-38l-128 3s-68 0 -115 -1l-47 1l38 14l137 46l103 34l4 31l15 72l11 69l11 66l7 34l8 43l-44 4l-99 3s-99 0 -146 -1l-200 -1h-80
h-79l-18 -80l-56 -10l3 -79zM339 357l1 41l132 4l-133 -46v1zM509 811l12 -6l18 -7v-80l-54 17l-40 14l-43 19l-41 15l-44 -14l-49 -20l-23 -8l-22 -8l-11 -4l-26 -5v78l24 8l17 8l11 5l12 6l87 34l24 8l33 -11l29 -11l32 -15l31 -15l11 -4z" />
    <glyph glyph-name="edieresis" unicode="&#xeb;" horiz-adv-x="736" 
d="M3 456l-1 -202c-1 -47 -2 -114 -2 -114l2 -100v-40l10 -1l10 -2l28 -3h12l37 -1l111 3l42 -1l65 2h15l248 -3l137 1l-2 40v37v134l3 38v44h-38l-128 3s-68 0 -115 -1l-47 1l38 14l137 46l103 34l4 31l15 72l11 69l11 66l7 34l8 43l-44 4l-99 3s-99 0 -146 -1l-200 -1h-80
h-79l-18 -80l-56 -10l3 -79zM339 357l1 41l132 4l-133 -46v1zM382 751l-1 -22l-2 -11l-39 1h-27l-35 -1h-34h-24l-11 2l-1 84l-1 6v21l-1 12l-2 32h29h15h9l54 3l34 -1h24l9 -1l-1 -35c0 -3 1 -5 1 -6l2 -43l2 -6v-20v-15zM568 836l1 -60v-31v-17l-2 -10l-39 1l-28 1l-36 -2
h-32h-24l-9 2h-2l-1 84l-1 25l-1 14v32h28h15h8l54 3l34 -1h24l9 -1l1 -35z" />
    <glyph glyph-name="iacute" unicode="&#xed;" horiz-adv-x="360" 
d="M2 257l1 197l2 135l-3 111l71 6l196 -4l74 2l2 -97l-6 -253l3 -312l-7 -47l-83 -3h-89l-93 1l-27 1l-41 6v39l-2 107s1 66 2 111zM348 835l-2 -15v-46l-102 -16l-142 -26l-102 -16v37l1 38l8 3l13 3l101 23l113 26l15 5s37 7 83 19l13 3z" />
    <glyph glyph-name="igrave" unicode="&#xec;" horiz-adv-x="361" 
d="M3 257l1 197l2 135l-3 111l71 6l196 -4l74 2l2 -97l-6 -253l3 -312l-7 -47l-83 -3h-89l-93 1l-27 1l-41 6v39l-2 107s1 66 2 111zM105 758l-103 16l1 46l-3 15l1 24v14l13 -3l117 -26l94 -24l101 -23l21 -6l2 -38l-1 -37l-102 16z" />
    <glyph glyph-name="icircumflex" unicode="&#xee;" horiz-adv-x="365" 
d="M3 257l1 197l2 135l-3 111l71 6l196 -4l74 2l2 -97l-6 -253l3 -312l-7 -47l-83 -3h-89l-93 1l-27 1l-41 6v39l-2 107s1 66 2 111zM323 809l12 -6l18 -7v-80l-54 17l-40 14l-43 19l-41 15l-44 -14l-49 -20l-23 -8l-22 -8l-11 -4l-26 -5v78l24 8l17 8l11 5l12 6l87 34l24 8
l33 -11l29 -11l32 -15l31 -15l11 -4z" />
    <glyph glyph-name="idieresis" unicode="&#xef;" horiz-adv-x="377" 
d="M9 257l1 197l2 135l-3 111l71 6l196 -4l74 2l2 -97l-6 -253l3 -312l-7 -47l-83 -3h-89l-93 1l-27 1l-41 6v39l-2 107s1 66 2 111zM178 749l-1 -22l-2 -11l-39 1h-27l-35 -1h-34h-24l-11 2l-1 84l-1 6v21l-1 12l-2 32h29h15h9l54 3l34 -1h24l9 -1l-1 -35c0 -3 1 -5 1 -6
l2 -43l2 -6v-20v-15zM364 834l1 -60v-31v-17l-2 -10l-39 1l-28 1l-36 -2h-32h-24l-9 2h-2l-1 84l-1 25l-1 14v32h28h15h8l54 3l34 -1h24l9 -1l1 -35z" />
    <glyph glyph-name="ntilde" unicode="&#xf1;" 
d="M2 254l1 202l2 80l-3 110l101 23l134 21l102 17l3 -60l13 2l150 29l25 6l163 27l4 -21l-1 -6l3 -98l-6 -233l2 -313l-6 -46l-66 -5l-106 4l-121 2l-40 6l-1 38l-1 100s1 67 2 114v202l2 80l-1 29l-12 -2l-6 -208l3 -313l-7 -46l-83 -2l-89 1l-93 1l-27 1l-41 4v40l-2 100
s1 67 2 114zM467 816l29 12l34 12l1 -72l-1 -22l-45 -19s-21 -9 -63 -24l-4 -1l-54 26l-24 13l-38 18l-36 -16l-37 -19l-40 -17l-1 41l1 58l46 19s21 10 64 24l4 2l47 -24l28 -12l15 -8l26 -10z" />
    <glyph glyph-name="oacute" unicode="&#xf3;" 
d="M2 615l3 -79l-2 -80l-1 -202c-1 -47 -2 -114 -2 -114l2 -100v-40l9 -2l12 -1l20 -3s11 3 18 2l38 -3l112 1h41l62 1h18l274 -5h17h22l48 5l4 70v78v81v21l-4 26v82l2 102l2 25v23l2 83l-2 74v4l-1 34h-4l-1 2h-40l-99 3s-68 0 -115 -1l-202 2h-80l-79 3l-18 -81zM339 354
l2 54l15 -1v-119h-16zM543 835l-2 -15v-46l-102 -16l-142 -26l-102 -16v37l1 38l8 3l13 3l101 23l113 26l15 5s37 7 83 19l13 3z" />
    <glyph glyph-name="ograve" unicode="&#xf2;" 
d="M2 615l3 -79l-2 -80l-1 -202c-1 -47 -2 -114 -2 -114l2 -100v-40l9 -2l12 -1l20 -3s11 3 18 2l38 -3l112 1h41l62 1h18l274 -5h17h22l48 5l4 70v78v81v21l-4 26v82l2 102l2 25v23l2 83l-2 74v4l-1 34h-4l-1 2h-40l-99 3s-68 0 -115 -1l-202 2h-80l-79 3l-18 -81zM339 354
l2 54l15 -1v-119h-16zM294 758l-103 16l1 46l-3 15l1 24v14l13 -3l117 -26l94 -24l101 -23l21 -6l2 -38l-1 -37l-102 16z" />
    <glyph glyph-name="ocircumflex" unicode="&#xf4;" 
d="M2 615l3 -79l-2 -80l-1 -202c-1 -47 -2 -114 -2 -114l2 -100v-40l9 -2l12 -1l20 -3s11 3 18 2l38 -3l112 1h41l62 1h18l274 -5h17h22l48 5l4 70v78v81v21l-4 26v82l2 102l2 25v23l2 83l-2 74v4l-1 34h-4l-1 2h-40l-99 3s-68 0 -115 -1l-202 2h-80l-79 3l-18 -81zM339 354
l2 54l15 -1v-119h-16zM509 809l12 -6l18 -7v-80l-54 17l-40 14l-43 19l-41 15l-44 -14l-49 -20l-23 -8l-22 -8l-11 -4l-26 -5v78l24 8l17 8l11 5l12 6l87 34l24 8l33 -11l29 -11l32 -15l31 -15l11 -4z" />
    <glyph glyph-name="odieresis" unicode="&#xf6;" 
d="M2 615l3 -79l-2 -80l-1 -202c-1 -47 -2 -114 -2 -114l2 -100v-40l9 -2l12 -1l20 -3s11 3 18 2l38 -3l112 1h41l62 1h18l274 -5h17h22l48 5l4 70v78v81v21l-4 26v82l2 102l2 25v23l2 83l-2 74v4l-1 34h-4l-1 2h-40l-99 3s-68 0 -115 -1l-202 2h-80l-79 3l-18 -81zM339 354
l2 54l15 -1v-119h-16zM354 746l-1 -22l-2 -11l-39 1h-27l-35 -1h-34h-24l-11 2l-1 84l-1 6v21l-1 12l-2 32h29h15h9l54 3l34 -1h24l9 -1l-1 -35c0 -3 1 -5 1 -6l2 -43l2 -6v-20v-15zM540 831l1 -60v-31v-17l-2 -10l-39 1l-28 1l-36 -2h-32h-24l-9 2h-2l-1 84l-1 25l-1 14v32
h28h15h8l54 3l34 -1h24l9 -1l1 -35z" />
    <glyph glyph-name="otilde" unicode="&#xf5;" 
d="M2 615l3 -79l-2 -80l-1 -202c-1 -47 -2 -114 -2 -114l2 -100v-40l9 -2l12 -1l20 -3s11 3 18 2l38 -3l112 1h41l62 1h18l274 -5h17h22l48 5l4 70v78v81v21l-4 26v82l2 102l2 25v23l2 83l-2 74v4l-1 34h-4l-1 2h-40l-99 3s-68 0 -115 -1l-202 2h-80l-79 3l-18 -81zM339 354
l2 54l15 -1v-119h-16zM483 830l29 12l34 12l1 -72l-1 -22l-45 -19s-21 -9 -63 -24l-4 -1l-54 26l-24 13l-38 18l-36 -16l-37 -19l-40 -17l-1 41l1 58l46 19s21 10 64 24l4 2l47 -24l28 -12l15 -8l26 -10z" />
    <glyph glyph-name="uacute" unicode="&#xfa;" horiz-adv-x="713" 
d="M693 -4l-48 -5l-313 5h-19l-61 -2l-40 1l-113 -4l-38 3h-18l-19 3l-22 3v40l-2 111s1 67 2 114l1 202l2 107l-3 83l101 18l100 19l135 17l7 -86l-6 -260l1 -77h18l1 178l1 107l-2 81l101 20l235 39l7 -89l-6 -260l1 -110l1 -9v-21v-61l1 -120l-4 -27zM547 830l-2 -15v-46
l-102 -16l-142 -26l-102 -16v37l1 38l8 3l13 3l101 23l113 26l15 5s37 7 83 19l13 3z" />
    <glyph glyph-name="ugrave" unicode="&#xf9;" horiz-adv-x="713" 
d="M693 -4l-48 -5l-313 5h-19l-61 -2l-40 1l-113 -4l-38 3h-18l-19 3l-22 3v40l-2 111s1 67 2 114l1 202l2 107l-3 83l101 18l100 19l135 17l7 -86l-6 -260l1 -77h18l1 178l1 107l-2 81l101 20l235 39l7 -89l-6 -260l1 -110l1 -9v-21v-61l1 -120l-4 -27zM291 748l-103 16
l1 46l-3 15l1 24v14l13 -3l117 -26l94 -24l101 -23l21 -6l2 -38l-1 -37l-102 16z" />
    <glyph glyph-name="ucircumflex" unicode="&#xfb;" horiz-adv-x="713" 
d="M693 -4l-48 -5l-313 5h-19l-61 -2l-40 1l-113 -4l-38 3h-18l-19 3l-22 3v40l-2 111s1 67 2 114l1 202l2 107l-3 83l101 18l100 19l135 17l7 -86l-6 -260l1 -77h18l1 178l1 107l-2 81l101 20l235 39l7 -89l-6 -260l1 -110l1 -9v-21v-61l1 -120l-4 -27zM507 799l12 -6
l18 -7v-80l-54 17l-40 14l-43 19l-41 15l-44 -14l-49 -20l-23 -8l-22 -8l-11 -4l-26 -5v78l24 8l17 8l11 5l12 6l87 34l24 8l33 -11l29 -11l32 -15l31 -15l11 -4z" />
    <glyph glyph-name="udieresis" unicode="&#xfc;" horiz-adv-x="713" 
d="M693 -4l-48 -5l-313 5h-19l-61 -2l-40 1l-113 -4l-38 3h-18l-19 3l-22 3v40l-2 111s1 67 2 114l1 202l2 107l-3 83l101 18l100 19l135 17l7 -86l-6 -260l1 -77h18l1 178l1 107l-2 81l101 20l235 39l7 -89l-6 -260l1 -110l1 -9v-21v-61l1 -120l-4 -27zM346 753l-1 -22
l-2 -11l-39 1h-27l-35 -1h-34h-24l-11 2l-1 84l-1 6v21l-1 12l-2 32h29h15h9l54 3l34 -1h24l9 -1l-1 -35c0 -3 1 -5 1 -6l2 -43l2 -6v-20v-15zM532 838l1 -60v-31v-17l-2 -10l-39 1l-28 1l-36 -2h-32h-24l-9 2h-2l-1 84l-1 25l-1 14v32h28h15h8l54 3l34 -1h24l9 -1l1 -35z
" />
    <glyph glyph-name="Agrave" unicode="&#xc0;" 
d="M2 254l1 202l2 80l-3 79l44 9l20 83l78 -3l81 5l202 -2c46 0 114 1 115 1l98 -3l41 -1l15 -2l3 -116l-6 -233l2 -310l-6 -47l-66 -6l-106 5h-93s-12 1 -20 1l-48 6l-1 40l-1 97s1 61 2 107h-16l2 -202l-7 -48l-83 -2l-89 2l-93 -3l-27 1l-41 6v40l-2 100s1 67 2 114z
M341 407l-2 -53v-11h17v64h-15zM292 759l-103 16l1 46l-3 15l1 24v14l13 -3l117 -26l94 -24l101 -23l21 -6l2 -38l-1 -37l-102 16z" />
    <glyph glyph-name="Atilde" unicode="&#xc3;" 
d="M2 254l1 202l2 80l-3 79l44 9l20 83l78 -3l81 5l202 -2c46 0 114 1 115 1l98 -3l41 -1l15 -2l3 -116l-6 -233l2 -310l-6 -47l-66 -6l-106 5h-93s-12 1 -20 1l-48 6l-1 40l-1 97s1 61 2 107h-16l2 -202l-7 -48l-83 -2l-89 2l-93 -3l-27 1l-41 6v40l-2 100s1 67 2 114z
M341 407l-2 -53v-11h17v64h-15zM482 834l29 12l34 12l1 -72l-1 -22l-45 -19s-21 -9 -63 -24l-4 -1l-54 26l-24 13l-38 18l-36 -16l-37 -19l-40 -17l-1 41l1 58l46 19s21 10 64 24l4 2l47 -24l28 -12l15 -8l26 -10z" />
    <glyph glyph-name="Otilde" unicode="&#xd5;" 
d="M3 467l-1 -202c-1 -47 -2 -114 -2 -114l2 -111v-40l22 -3l75 -7l113 1h40l62 2h18l274 -4l39 -1l48 5l4 72v78v81v20v1l-4 26v82l2 101l2 26v24l2 82l-2 79l-1 34l-5 2l-40 1l-99 3s-68 -1 -115 -1l-99 1h-49l-54 1l-80 -2l-75 -4l-78 -1l3 -125zM339 365l1 43l16 -1
v-119h-16zM476 833l29 12l34 12l1 -72l-1 -22l-45 -19s-21 -9 -63 -24l-4 -1l-54 26l-24 13l-38 18l-36 -16l-37 -19l-40 -17l-1 41l1 58l46 19s21 10 64 24l4 2l47 -24l28 -12l15 -8l26 -10z" />
    <glyph glyph-name="ydieresis" unicode="&#xff;" horiz-adv-x="710" 
d="M335 703l7 -65l-3 -146l5 -203l-4 -50l2 -1l14 4l3 99l-3 316l7 48l83 2l89 -1l93 -1l26 -1l6 1l36 -7v-40l2 -103s-1 -67 -3 -114v-138l1 -13l-1 -5v-67l-1 -74v-25l-2 -72l1 -20l-39 -14l-24 -4l-20 -7l-339 -87l-179 -37l-32 -8l2 47l1 51l4 88l-2 27l3 38v25l2 31
l35 11l47 11l45 9l-77 28l-98 36l-12 4l-8 2v10l3 51l-2 81v110l-3 54l2 72v41l42 6h26l93 1l90 2zM343 750l-1 -22l-2 -11l-39 1h-27l-35 -1h-34h-24l-11 2l-1 84l-1 6v21l-1 12l-2 32h29h15h9l54 3l34 -1h24l9 -1l-1 -35c0 -3 1 -5 1 -6l2 -43l2 -6v-20v-15zM529 835
l1 -60v-31v-17l-2 -10l-39 1l-28 1l-36 -2h-32h-24l-9 2h-2l-1 84l-1 25l-1 14v32h28h15h8l54 3l34 -1h24l9 -1l1 -35z" />
    <glyph glyph-name="Ydieresis" unicode="&#x178;" 
d="M2 467l1 2l1 106l-2 126l102 6l234 -1l7 -79l-6 -260l2 -93h14l-1 77l2 115v3l2 106l-2 129l102 3l234 2l7 -82l-6 -260l2 -126l-6 -48l-51 -1l-100 -3l-44 1l3 -145l-7 -48l-83 -3l-89 2l-93 1l-28 1l-40 1v40l-2 100l1 53l-86 1l-28 1l-40 6v40l-2 111s1 67 2 114v1v1z
M342 749l-1 -22l-2 -11l-39 1h-27l-35 -1h-34h-24l-11 2l-1 84l-1 6v21l-1 12l-2 32h29h15h9l54 3l34 -1h24l9 -1l-1 -35c0 -3 1 -5 1 -6l2 -43l2 -6v-20v-15zM528 834l1 -60v-31v-17l-2 -10l-39 1l-28 1l-36 -2h-32h-24l-9 2h-2l-1 84l-1 25l-1 14v32h28h15h8l54 3l34 -1
h24l9 -1l1 -35z" />
    <glyph glyph-name="Acircumflex" unicode="&#xc2;" 
d="M2 254l1 202l2 80l-3 79l44 9l20 83l78 -3l81 5l202 -2c46 0 114 1 115 1l98 -3l41 -1l15 -2l3 -116l-6 -233l2 -310l-6 -47l-66 -6l-106 5h-93s-12 1 -20 1l-48 6l-1 40l-1 97s1 61 2 107h-16l2 -202l-7 -48l-83 -2l-89 2l-93 -3l-27 1l-41 6v40l-2 100s1 67 2 114z
M341 407l-2 -53v-11h17v64h-15zM509 811l12 -6l18 -7v-80l-54 17l-40 14l-43 19l-41 15l-44 -14l-49 -20l-23 -8l-22 -8l-11 -4l-26 -5v78l24 8l17 8l11 5l12 6l87 34l24 8l33 -11l29 -11l32 -15l31 -15l11 -4z" />
    <glyph glyph-name="Ecircumflex" unicode="&#xca;" horiz-adv-x="728" 
d="M2 254l1 202l2 80l-3 79l56 11l18 81l79 -3l80 3l202 -2c47 1 115 1 115 1l93 -3h71v-12l-1 -10l-14 -58l-5 -31l-17 -80l-23 -104l-6 -2l-10 -4l-299 6l-1 -17l205 -2s60 -3 104 -3h17h12l-2 -36v-16l-2 -33l-101 2l-137 3h-96v-18l97 -1c47 1 115 1 115 1l99 -3l40 -1
l6 -39v-21v-81v-77l-4 -73l-48 -5l-313 6h-18l-62 -2l-40 1l-113 -1l-38 3h-7v-1l-30 3l-13 1l1 1l-10 1v40l-2 100s1 67 2 114zM509 808l12 -6l18 -7v-80l-54 17l-40 14l-43 19l-41 15l-44 -14l-49 -20l-23 -8l-22 -8l-11 -4l-26 -5v78l24 8l17 8l11 5l12 6l87 34l24 8
l33 -11l29 -11l32 -15l31 -15l11 -4z" />
    <glyph glyph-name="Aacute" unicode="&#xc1;" 
d="M2 254l1 202l2 80l-3 79l44 9l20 83l78 -3l81 5l202 -2c46 0 114 1 115 1l98 -3l41 -1l15 -2l3 -116l-6 -233l2 -310l-6 -47l-66 -6l-106 5h-93s-12 1 -20 1l-48 6l-1 40l-1 97s1 61 2 107h-16l2 -202l-7 -48l-83 -2l-89 2l-93 -3l-27 1l-41 6v40l-2 100s1 67 2 114z
M341 407l-2 -53v-11h17v64h-15zM531 836l-2 -15v-46l-102 -16l-142 -26l-102 -16v37l1 38l8 3l13 3l101 23l113 26l15 5s37 7 83 19l13 3z" />
    <glyph glyph-name="Edieresis" unicode="&#xcb;" horiz-adv-x="728" 
d="M2 254l1 202l2 80l-3 79l56 11l18 81l79 -3l80 3l202 -2c47 1 115 1 115 1l93 -3h71v-12l-1 -10l-14 -58l-5 -31l-17 -80l-23 -104l-6 -2l-10 -4l-299 6l-1 -17l205 -2s60 -3 104 -3h17h12l-2 -36v-16l-2 -33l-101 2l-137 3h-96v-18l97 -1c47 1 115 1 115 1l99 -3l40 -1
l6 -39v-21v-81v-77l-4 -73l-48 -5l-313 6h-18l-62 -2l-40 1l-113 -1l-38 3h-7v-1l-30 3l-13 1l1 1l-10 1v40l-2 100s1 67 2 114zM372 752l-1 -22l-2 -11l-39 1h-27l-35 -1h-34h-24l-11 2l-1 84l-1 6v21l-1 12l-2 32h29h15h9l54 3l34 -1h24l9 -1l-1 -35c0 -3 1 -5 1 -6l2 -43
l2 -6v-20v-15zM558 837l1 -60v-31v-17l-2 -10l-39 1l-28 1l-36 -2h-32h-24l-9 2h-2l-1 84l-1 25l-1 14v32h28h15h8l54 3l34 -1h24l9 -1l1 -35z" />
    <glyph glyph-name="Egrave" unicode="&#xc8;" horiz-adv-x="728" 
d="M2 254l1 202l2 80l-3 79l56 11l18 81l79 -3l80 3l202 -2c47 1 115 1 115 1l93 -3h71v-12l-1 -10l-14 -58l-5 -31l-17 -80l-23 -104l-6 -2l-10 -4l-299 6l-1 -17l205 -2s60 -3 104 -3h17h12l-2 -36v-16l-2 -33l-101 2l-137 3h-96v-18l97 -1c47 1 115 1 115 1l99 -3l40 -1
l6 -39v-21v-81v-77l-4 -73l-48 -5l-313 6h-18l-62 -2l-40 1l-113 -1l-38 3h-7v-1l-30 3l-13 1l1 1l-10 1v40l-2 100s1 67 2 114zM294 758l-103 16l1 46l-3 15l1 24v14l13 -3l117 -26l94 -24l101 -23l21 -6l2 -38l-1 -37l-102 16z" />
    <glyph glyph-name="Iacute" unicode="&#xcd;" horiz-adv-x="360" 
d="M2 257l1 197l2 135l-3 111l71 6l196 -4l74 2l2 -97l-6 -253l3 -312l-7 -47l-83 -3h-89l-93 1l-27 1l-41 6v39l-2 107s1 66 2 111zM348 835l-2 -15v-46l-102 -16l-142 -26l-102 -16v37l1 38l8 3l13 3l101 23l113 26l15 5s37 7 83 19l13 3z" />
    <glyph glyph-name="Icircumflex" unicode="&#xce;" horiz-adv-x="365" 
d="M6 257l1 197l2 135l-3 111l71 6l196 -4l74 2l2 -97l-6 -253l3 -312l-7 -47l-83 -3h-89l-93 1l-27 1l-41 6v39l-2 107s1 66 2 111zM323 808l12 -6l18 -7v-80l-54 17l-40 14l-43 19l-41 15l-44 -14l-49 -20l-23 -8l-22 -8l-11 -4l-26 -5v78l24 8l17 8l11 5l12 6l87 34l24 8
l33 -11l29 -11l32 -15l31 -15l11 -4z" />
    <glyph glyph-name="Idieresis" unicode="&#xcf;" horiz-adv-x="377" 
d="M11 257l1 197l2 135l-3 111l71 6l196 -4l74 2l2 -97l-6 -253l3 -312l-7 -47l-83 -3h-89l-93 1l-27 1l-41 6v39l-2 107s1 66 2 111zM178 749l-1 -22l-2 -11l-39 1h-27l-35 -1h-34h-24l-11 2l-1 84l-1 6v21l-1 12l-2 32h29h15h9l54 3l34 -1h24l9 -1l-1 -35c0 -3 1 -5 1 -6
l2 -43l2 -6v-20v-15zM364 834l1 -60v-31v-17l-2 -10l-39 1l-28 1l-36 -2h-32h-24l-9 2h-2l-1 84l-1 25l-1 14v32h28h15h8l54 3l34 -1h24l9 -1l1 -35z" />
    <glyph glyph-name="Igrave" unicode="&#xcc;" horiz-adv-x="361" 
d="M5 257l1 197l2 135l-3 111l71 6l196 -4l74 2l2 -97l-6 -253l3 -312l-7 -47l-83 -3h-89l-93 1l-27 1l-41 6v39l-2 107s1 66 2 111zM105 757l-103 16l1 46l-3 15l1 24v14l13 -3l117 -26l94 -24l101 -23l21 -6l2 -38l-1 -37l-102 16z" />
    <glyph glyph-name="Oacute" unicode="&#xd3;" 
d="M3 467l-1 -202c-1 -47 -2 -114 -2 -114l2 -111v-40l22 -3l75 -7l113 1h40l62 2h18l274 -4l39 -1l48 5l4 72v78v81v20v1l-4 26v82l2 101l2 26v24l2 82l-2 79l-1 34l-5 2l-40 1l-99 3s-68 -1 -115 -1l-99 1h-49l-54 1l-80 -2l-75 -4l-78 -1l3 -125zM339 365l1 43l16 -1
v-119h-16zM540 835l-2 -15v-46l-102 -16l-142 -26l-102 -16v37l1 38l8 3l13 3l101 23l113 26l15 5s37 7 83 19l13 3z" />
    <glyph glyph-name="Ocircumflex" unicode="&#xd4;" 
d="M3 467l-1 -202c-1 -47 -2 -114 -2 -114l2 -111v-40l22 -3l75 -7l113 1h40l62 2h18l274 -4l39 -1l48 5l4 72v78v81v20v1l-4 26v82l2 101l2 26v24l2 82l-2 79l-1 34l-5 2l-40 1l-99 3s-68 -1 -115 -1l-99 1h-49l-54 1l-80 -2l-75 -4l-78 -1l3 -125zM339 365l1 43l16 -1
v-119h-16zM504 811l12 -6l18 -7v-80l-54 17l-40 14l-43 19l-41 15l-44 -14l-49 -20l-23 -8l-22 -8l-11 -4l-26 -5v78l24 8l17 8l11 5l12 6l87 34l24 8l33 -11l29 -11l32 -15l31 -15l11 -4z" />
    <glyph glyph-name="Ograve" unicode="&#xd2;" 
d="M3 467l-1 -202c-1 -47 -2 -114 -2 -114l2 -111v-40l22 -3l75 -7l113 1h40l62 2h18l274 -4l39 -1l48 5l4 72v78v81v20v1l-4 26v82l2 101l2 26v24l2 82l-2 79l-1 34l-5 2l-40 1l-99 3s-68 -1 -115 -1l-99 1h-49l-54 1l-80 -2l-75 -4l-78 -1l3 -125zM339 365l1 43l16 -1
v-119h-16zM293 758l-103 16l1 46l-3 15l1 24v14l13 -3l117 -26l94 -24l101 -23l21 -6l2 -38l-1 -37l-102 16z" />
    <glyph glyph-name="Uacute" unicode="&#xda;" 
d="M2 267l1 202l2 106l-3 129l147 6l189 -1l7 -82l-6 -261l1 -76l16 -1v179l2 106l-3 132h157l180 2l7 -82l-6 -261v-94l4 -24v-1v-21l-1 -81l1 -73l-2 -25l-2 -48l-48 -5l-219 4h-17l-77 2h-18l-62 -2l-40 1l-113 -2l-27 3l-48 -1l-12 2l-10 1v41l-2 110s1 68 2 115z
M543 839l-2 -15v-46l-102 -16l-142 -26l-102 -16v37l1 38l8 3l13 3l101 23l113 26l15 5s37 7 83 19l13 3z" />
    <glyph glyph-name="Ucircumflex" unicode="&#xdb;" 
d="M2 267l1 202l2 106l-3 129l147 6l189 -1l7 -82l-6 -261l1 -76l16 -1v179l2 106l-3 132h157l180 2l7 -82l-6 -261v-94l4 -24v-1v-21l-1 -81l1 -73l-2 -25l-2 -48l-48 -5l-219 4h-17l-77 2h-18l-62 -2l-40 1l-113 -2l-27 3l-48 -1l-12 2l-10 1v41l-2 110s1 68 2 115z
M505 811l12 -6l18 -7v-80l-54 17l-40 14l-43 19l-41 15l-44 -14l-49 -20l-23 -8l-22 -8l-11 -4l-26 -5v78l24 8l17 8l11 5l12 6l87 34l24 8l33 -11l29 -11l32 -15l31 -15l11 -4z" />
    <glyph glyph-name="Ugrave" unicode="&#xd9;" 
d="M2 267l1 202l2 106l-3 129l147 6l189 -1l7 -82l-6 -261l1 -76l16 -1v179l2 106l-3 132h157l180 2l7 -82l-6 -261v-94l4 -24v-1v-21l-1 -81l1 -73l-2 -25l-2 -48l-48 -5l-219 4h-17l-77 2h-18l-62 -2l-40 1l-113 -2l-27 3l-48 -1l-12 2l-10 1v41l-2 110s1 68 2 115z
M294 758l-103 16l1 46l-3 15l1 24v14l13 -3l117 -26l94 -24l101 -23l21 -6l2 -38l-1 -37l-102 16z" />
    <glyph glyph-name="eth" unicode="&#xf0;" horiz-adv-x="709" 
d="M697 144l-2 -77v-73l-48 -5l-262 5l-50 1l-21 -2l-62 -2l-40 1l-111 -1l-36 3l-15 1l-27 2l-9 1l-12 2v40l-2 24v1v1s1 3 1 7c0 8 1 21 1 44l1 111l2 79l-3 63h2l7 3l13 5l98 36l61 29l51 30l-39 64l-100 -1l-23 2l-34 4v9v5v15l-1 9l1 17v26h12l15 2l53 -1h24l-45 78
l101 5l271 1l58 -87c9 0 25 1 44 1c27 0 61 1 86 1h14l-1 -10v-13l-1 -12l2 -8v-9v-15l-3 -18l-64 -1h-25l112 -185l1 -85l1 -21l-1 -4l1 -30zM355 242v173l-16 -5l2 -52l-1 -116h15z" />
    <glyph glyph-name="Scaron" unicode="&#x160;" horiz-adv-x="725" 
d="M2 314v25l-2 52s1 32 3 54v96l2 37l1 49l4 73l48 5h15v1l75 -2h7l77 3l202 -2h115l37 -1h18l11 -1h26l72 -1l-1 -22l-14 -58l-5 -31l-17 -79l-23 -105l-17 -6h-8l-29 1l-56 1l-75 -1l-127 1v-15h22l208 -4l104 -2h29l-3 -59l3 -32l-3 -117l2 -150l-7 -29h-22l-40 -4
l-137 4h-66s-25 1 -27 1l-40 -1v0l-42 1l-234 -3l-85 7l3 197l-2 97l143 -4h81l138 -3l-1 19h-218l-11 1l-67 4h-26zM217 782l-12 6l-18 7v80l54 -17l40 -14l43 -19l41 -15l44 14l49 20l23 8l22 8l11 4l26 5v-78l-24 -8l-17 -8l-11 -5l-12 -6l-87 -34l-24 -8l-33 11l-29 11
l-32 15l-31 15l-11 4z" />
    <glyph glyph-name="scaron" unicode="&#x161;" horiz-adv-x="724" 
d="M646 404l-10 -3l-296 6l1 -17h22l207 -3c1 0 60 -3 105 -3h17h11l-2 -50v-10l2 -34l-3 -111l3 -158l-8 -29h-21l-40 -1l-138 1l-92 1l-41 3l-42 1l-233 -5l-88 8l47 206l21 88l79 -4h80l138 -3l-1 21h-229v1l-66 4h-27l-40 3l-1 11v16l-1 48s1 32 2 53v96l2 37l-3 44
l53 4l18 81l79 -3h80h202h115l93 -2l71 -1v-11l-1 -11l-14 -56l-5 -31l-17 -79l-23 -106zM214 782l-12 6l-18 7v80l54 -17l40 -14l43 -19l41 -15l44 14l49 20l23 8l22 8l11 4l26 5v-78l-24 -8l-17 -8l-11 -5l-12 -6l-87 -34l-24 -8l-33 11l-29 11l-32 15l-31 15l-11 4z" />
    <glyph glyph-name="Yacute" unicode="&#xdd;" 
d="M2 467l1 2l1 106l-2 126l102 6l234 -1l7 -79l-6 -260l2 -93h14l-1 77l2 115v3l2 106l-2 129l102 3l234 2l7 -82l-6 -260l2 -126l-6 -48l-51 -1l-100 -3l-44 1l3 -145l-7 -48l-83 -3l-89 2l-93 1l-28 1l-40 1v40l-2 100l1 53l-86 1l-28 1l-40 6v40l-2 111s1 67 2 114v1v1z
M534 835l-2 -15v-46l-102 -16l-142 -26l-102 -16v37l1 38l8 3l13 3l101 23l113 26l15 5s37 7 83 19l13 3z" />
    <glyph glyph-name="yacute" unicode="&#xfd;" horiz-adv-x="710" 
d="M335 703l7 -65l-3 -146l5 -203l-4 -50l2 -1l14 4l3 99l-3 316l7 48l83 2l89 -1l93 -1l26 -1l6 1l36 -7v-40l2 -103s-1 -67 -3 -114v-138l1 -13l-1 -5v-67l-1 -74v-25l-2 -72l1 -20l-39 -14l-24 -4l-20 -7l-339 -87l-179 -37l-32 -8l2 47l1 51l4 88l-2 27l3 38v25l2 31
l35 11l47 11l45 9l-77 28l-98 36l-12 4l-8 2v10l3 51l-2 81v110l-3 54l2 72v41l42 6h26l93 1l90 2zM535 835l-2 -15v-46l-102 -16l-142 -26l-102 -16v37l1 38l8 3l13 3l101 23l113 26l15 5s37 7 83 19l13 3z" />
    <glyph glyph-name="Zcaron" unicode="&#x17d;" horiz-adv-x="702" 
d="M91 407l-84 7l-7 189l3 103h146l80 1l202 -1c47 1 115 1 115 1l99 -3h40l5 -37l-1 -1c0 -5 1 -24 1 -24l-1 -83v-78l-4 -73h-2v-1l-105 -36l-142 -48l-91 -34h85h115l99 -3h40l6 -39h-1c0 -6 1 -22 1 -22l-1 -81v-72l-4 -74l-48 -5l-312 6l-234 -1l-85 1l4 197l5 79l4 1
l67 21l100 38l113 42l88 31l-62 1zM220 782l-12 6l-18 7v80l54 -17l40 -14l43 -19l41 -15l44 14l49 20l23 8l22 8l11 4l26 5v-78l-24 -8l-17 -8l-11 -5l-12 -6l-87 -34l-24 -8l-33 11l-29 11l-32 15l-31 15l-11 4z" />
    <glyph glyph-name="zcaron" unicode="&#x17e;" horiz-adv-x="698" 
d="M144 706h80l202 -2c47 1 114 1 115 1l99 -3h40l6 -40v-21l-1 -81v-78l-4 -73l-107 -37l-142 -48l-91 -34l85 -1c47 1 114 1 115 1l99 -3h40l6 -40v-21l-1 -81v-77l-4 -73l-48 -5l-312 6l-234 -2l-87 6l44 205l14 82l24 11l100 37l113 43l88 31l-62 1l-234 -3l-87 8
l45 206l20 88zM214 782l-12 6l-18 7v80l54 -17l40 -14l43 -19l41 -15l44 14l49 20l23 8l22 8l11 4l26 5v-78l-24 -8l-17 -8l-11 -5l-12 -6l-87 -34l-24 -8l-33 11l-29 11l-32 15l-31 15l-11 4z" />
    <glyph glyph-name="fi" unicode="&#xfb01;" horiz-adv-x="981" 
d="M969 430l-3 -233l3 -161l-7 -43l-83 -3l-89 2l-93 1l-27 1l-41 5v36l-2 70s1 5 1 9c0 7 1 20 1 44l1 111l2 79l-2 58l-44 -4l-245 6l-1 -17l49 -1c40 1 98 1 98 1l84 -3l35 -1l6 -46l-1 -13l-1 -81v-78l-3 -73l-41 -5l-225 5l1 -55l-7 -48l-83 -2l-89 1l-93 1l-16 -1
l-52 8v40l-2 100s1 67 2 114l1 202l2 80l-3 79l56 11l19 81l78 -3h80l202 1c47 1 115 1 116 1l40 -3h40l6 -41l91 17l236 40l2 -57l-2 -51l1 -81l-3 -50h3zM851 467l-61 1l-93 1s-26 1 -27 1l-32 5l-1 -19l-2 -33l95 23z" />
    <glyph glyph-name="fl" unicode="&#xfb02;" horiz-adv-x="1094" 
d="M967 291h27l88 -7l-45 -206l-20 -85l-73 3l-64 -2l-89 2h-94s-8 -1 -15 -1l-17 -1l-35 6l-1 40l-1 100s1 67 2 114v148l-289 6l-1 -17l49 -1c40 1 98 1 98 1l84 -3l35 -1l5 -38h-1c0 -6 1 -21 1 -21l-1 -81v-78l-3 -73l-41 -5l-225 6l1 -53l-7 -48l-83 -2l-89 2h-93
s-8 1 -16 1l-32 -2l-20 5v40l-2 100s1 67 2 114l1 202l2 80l-3 79l56 11l18 81l79 -3h80h202c47 0 115 1 115 1l98 -3l1 -2h41l274 9l7 -70l-6 -285v-63z" />
    <glyph glyph-name="dotlessi" unicode="&#x131;" horiz-adv-x="357" 
d="M2 257l1 197l2 -27l-3 111l71 6l196 -4l74 2l2 -97l-6 -91l3 -312l-7 -47l-83 -3h-89l-93 1l-27 1l-41 6v39l-2 107s1 66 2 111z" />
    <glyph glyph-name="dagger" unicode="&#x2020;" horiz-adv-x="487" 
d="M475 404v-9v-15l-5 -18l-45 -1h-38l-57 1l-55 1v-103l4 -162l2 -107l-32 -2h-16l-24 3l-10 2v10v16c0 44 -2 106 -2 107l-4 233v2l-34 -1l-116 -1l-17 2l-26 4v9v5v15v9v17v26h9l11 2l40 -1h39l46 1h45h3l1 133v104l1 23l42 1l38 -3v-260h2l86 -2s16 0 37 1
c20 0 46 1 64 1h11v-10l-1 -13v-12z" />
    <glyph glyph-name="mu" unicode="&#xb5;" horiz-adv-x="724" 
d="M711 694l1 -39l-3 -94v-3c0 -1 2 -33 2 -68c0 -12 0 -25 -1 -37l-1 -181l-6 -96l5 -48l-1 -6l-3 -10l3 -77l-3 -45l-257 -2l-46 2h-206l-82 1l-110 5l-1 38l-2 86v13s1 61 4 103v182l6 96v54l-3 89l21 42l241 2l92 -4l158 2l85 -1z" />
    <glyph glyph-name="mu" unicode="&#x3bc;" horiz-adv-x="724" 
d="M711 694l1 -39l-3 -94v-3c0 -1 2 -33 2 -68c0 -12 0 -25 -1 -37l-1 -181l-6 -96l5 -48l-1 -6l-3 -10l3 -77l-3 -45l-257 -2l-46 2h-206l-82 1l-110 5l-1 38l-2 86v13s1 61 4 103v182l6 96v54l-3 89l21 42l241 2l92 -4l158 2l85 -1z" />
    <glyph glyph-name="partialdiff" unicode="&#x2202;" horiz-adv-x="1055" 
d="M1042 561l1 -3l-5 -104l-1 -182l-6 -96v-54l2 -35l2 -78l-9 -19l-252 -2l-284 5l-297 -3l-82 1l-110 4l-1 39l4 94v4s-3 33 -3 67c0 13 0 26 1 37l2 182l5 95l-5 49l4 15l-2 78l2 44l258 2l285 -1l296 -1l85 -1l107 -4l1 -38z" />
    <glyph glyph-name="summation" unicode="&#x2211;" horiz-adv-x="1504" 
d="M1491 698l1 -38l-4 -95l1 -3c0 -1 2 -33 2 -67c0 -13 0 -26 -1 -37l-2 -182l-5 -95l3 -49v-2l-2 -14l3 -77l-3 -44l-258 -1l-365 1c-1 0 -75 1 -84 1l-59 -2h-23l-248 -2l-251 3h-82l-110 5l-1 38l-3 81l1 18l4 103v182l3 96l-3 55l-1 88l5 42l20 -2l241 5l92 -5l158 2
h85l93 -4l63 4l288 3l92 -5l158 2h84z" />
    <glyph glyph-name="product" unicode="&#x220f;" horiz-adv-x="724" 
d="M711 694l1 -39l-3 -94v-3c0 -1 2 -33 2 -68c0 -12 0 -25 -1 -37l-1 -181l-6 -96l5 -48l-1 -6l-3 -10l3 -77l-3 -45l-257 -2v0l-46 2h-206l-82 1l-110 5l-1 38l-2 86v13s1 61 4 103v182l6 96v54l-3 89l21 42l241 2l92 -4l158 2l85 -1z" />
    <glyph glyph-name="pi" unicode="&#x3c0;" horiz-adv-x="1055" 
d="M1042 561l1 -3l-5 -104l-1 -182l-6 -96v-54l2 -35l2 -78l-9 -19l-252 -2l-284 5l-297 -3l-82 1l-110 4l-1 39l4 94v4s-3 33 -3 67c0 13 0 26 1 37l2 182l5 95l-5 49l4 15l-2 78l2 44l258 2l285 -1l296 -1l85 -1l107 -4l1 -38z" />
    <glyph glyph-name="integral" unicode="&#x222b;" horiz-adv-x="1504" 
d="M1491 698l1 -38l-4 -95l1 -3c0 -1 2 -33 2 -67c0 -13 0 -26 -1 -37l-2 -182l-5 -95l3 -49v-2l-2 -14l3 -77l-3 -44l-258 -1l-365 1c-1 0 -75 1 -84 1l-59 -2h-23l-248 -2l-251 3h-82l-110 5l-1 38l-3 81l1 18l4 103v182l3 96l-3 55l-1 88l5 42l20 -2l241 5l92 -5l158 2
h85l93 -4l63 4l288 3l92 -5l158 2h84z" />
    <glyph glyph-name="section" unicode="&#xa7;" horiz-adv-x="1504" 
d="M1491 698l1 -38l-4 -95l1 -3c0 -1 2 -33 2 -67c0 -13 0 -26 -1 -37l-2 -182l-5 -95l3 -49v-2l-2 -14l3 -77l-3 -44l-258 -1l-365 1c-1 0 -75 1 -84 1l-59 -2h-23l-248 -2l-251 3h-82l-110 5l-1 38l-3 81l1 18l4 103v182l3 96l-3 55l-1 88l5 42l20 -2l241 5l92 -5l158 2
h85l93 -4l63 4l288 3l92 -5l158 2h84z" />
    <glyph glyph-name="paragraph" unicode="&#xb6;" horiz-adv-x="724" 
d="M711 694l1 -39l-3 -94v-3c0 -1 2 -33 2 -68c0 -12 0 -25 -1 -37l-1 -181l-6 -96l5 -48l-1 -6l-3 -10l3 -77l-3 -45l-257 -2v0l-46 2h-206l-82 1l-110 5l-1 38l-2 86v13s1 61 4 103v182l6 96v54l-3 89l21 42l241 2l92 -4l158 2l85 -1z" />
    <glyph glyph-name="Delta" unicode="&#x394;" horiz-adv-x="724" 
d="M711 694l1 -39l-3 -94v-3c0 -1 2 -33 2 -68c0 -12 0 -25 -1 -37l-1 -181l-6 -96l5 -48l-1 -6l-3 -10l3 -77l-3 -45l-257 -2l-46 2h-206l-82 1l-110 5l-1 38l-2 86v13s1 61 4 103v182l6 96v54l-3 89l21 42l241 2l92 -4l158 2l85 -1z" />
    <glyph glyph-name="Delta" unicode="&#x2206;" horiz-adv-x="724" 
d="M711 694l1 -39l-3 -94v-3c0 -1 2 -33 2 -68c0 -12 0 -25 -1 -37l-1 -181l-6 -96l5 -48l-1 -6l-3 -10l3 -77l-3 -45l-257 -2l-46 2h-206l-82 1l-110 5l-1 38l-2 86v13s1 61 4 103v182l6 96v54l-3 89l21 42l241 2l92 -4l158 2l85 -1z" />
    <glyph glyph-name="Omega" unicode="&#x3a9;" horiz-adv-x="724" 
d="M711 694l1 -39l-3 -94v-3c0 -1 2 -33 2 -68c0 -12 0 -25 -1 -37l-1 -181l-6 -96l5 -48l-1 -6l-3 -10l3 -77l-3 -45l-257 -2l-46 2h-206l-82 1l-110 5l-1 38l-2 86v13s1 61 4 103v182l6 96v54l-3 89l21 42l241 2l92 -4l158 2l85 -1z" />
    <glyph glyph-name="Omega" unicode="&#x2126;" horiz-adv-x="724" 
d="M711 694l1 -39l-3 -94v-3c0 -1 2 -33 2 -68c0 -12 0 -25 -1 -37l-1 -181l-6 -96l5 -48l-1 -6l-3 -10l3 -77l-3 -45l-257 -2l-46 2h-206l-82 1l-110 5l-1 38l-2 86v13s1 61 4 103v182l6 96v54l-3 89l21 42l241 2l92 -4l158 2l85 -1z" />
    </font>
</defs>
</svg>
